<mxfile host="app.diagrams.net" modified="2024-05-20T15:26:07.633Z" agent="Mozilla/5.0 (Macintosh; Intel Mac OS X 10_15_7) AppleWebKit/537.36 (KHTML, like Gecko) Chrome/124.0.0.0 Safari/537.36" etag="JO_SHzOFkJrxsqmKrVhB" version="21.2.1" type="device" pages="14">
  <diagram id="5V9H4aHjKvFMl_5q4Geh" name="00 - int">
    <mxGraphModel dx="3100" dy="734" grid="1" gridSize="10" guides="1" tooltips="1" connect="1" arrows="1" fold="1" page="1" pageScale="1" pageWidth="1920" pageHeight="1200" math="0" shadow="0">
      <root>
        <mxCell id="DkH791YUuvN2VfSNtMLN-0" />
        <mxCell id="DkH791YUuvN2VfSNtMLN-1" parent="DkH791YUuvN2VfSNtMLN-0" />
        <mxCell id="NlZj7tw6HwKpVnlPrFdB-3" value="S3" style="text;html=1;align=center;verticalAlign=middle;resizable=0;points=[];autosize=1;strokeColor=none;fillColor=none;" vertex="1" parent="DkH791YUuvN2VfSNtMLN-1">
          <mxGeometry x="239.5" y="890" width="40" height="30" as="geometry" />
        </mxCell>
        <mxCell id="NlZj7tw6HwKpVnlPrFdB-32" style="edgeStyle=orthogonalEdgeStyle;rounded=0;orthogonalLoop=1;jettySize=auto;html=1;entryX=0;entryY=0.5;entryDx=0;entryDy=0;entryPerimeter=0;" edge="1" parent="DkH791YUuvN2VfSNtMLN-1" source="NlZj7tw6HwKpVnlPrFdB-8" target="NlZj7tw6HwKpVnlPrFdB-15">
          <mxGeometry relative="1" as="geometry" />
        </mxCell>
        <mxCell id="NlZj7tw6HwKpVnlPrFdB-8" value="" style="sketch=0;points=[[0,0,0],[0.25,0,0],[0.5,0,0],[0.75,0,0],[1,0,0],[0,1,0],[0.25,1,0],[0.5,1,0],[0.75,1,0],[1,1,0],[0,0.25,0],[0,0.5,0],[0,0.75,0],[1,0.25,0],[1,0.5,0],[1,0.75,0]];outlineConnect=0;fontColor=#232F3E;gradientColor=#945DF2;gradientDirection=north;fillColor=#5A30B5;strokeColor=#ffffff;dashed=0;verticalLabelPosition=bottom;verticalAlign=top;align=center;html=1;fontSize=12;fontStyle=0;aspect=fixed;shape=mxgraph.aws4.resourceIcon;resIcon=mxgraph.aws4.api_gateway;" vertex="1" parent="DkH791YUuvN2VfSNtMLN-1">
          <mxGeometry x="220" y="600" width="79" height="79" as="geometry" />
        </mxCell>
        <mxCell id="NlZj7tw6HwKpVnlPrFdB-10" value="API GATE WAY" style="text;html=1;align=center;verticalAlign=middle;resizable=0;points=[];autosize=1;strokeColor=none;fillColor=none;" vertex="1" parent="DkH791YUuvN2VfSNtMLN-1">
          <mxGeometry x="204.5" y="690" width="110" height="30" as="geometry" />
        </mxCell>
        <mxCell id="NlZj7tw6HwKpVnlPrFdB-11" value="" style="sketch=0;points=[[0,0,0],[0.25,0,0],[0.5,0,0],[0.75,0,0],[1,0,0],[0,1,0],[0.25,1,0],[0.5,1,0],[0.75,1,0],[1,1,0],[0,0.25,0],[0,0.5,0],[0,0.75,0],[1,0.25,0],[1,0.5,0],[1,0.75,0]];outlineConnect=0;fontColor=#232F3E;gradientColor=#60A337;gradientDirection=north;fillColor=#277116;strokeColor=#ffffff;dashed=0;verticalLabelPosition=bottom;verticalAlign=top;align=center;html=1;fontSize=12;fontStyle=0;aspect=fixed;shape=mxgraph.aws4.resourceIcon;resIcon=mxgraph.aws4.s3;" vertex="1" parent="DkH791YUuvN2VfSNtMLN-1">
          <mxGeometry x="220" y="800" width="78" height="78" as="geometry" />
        </mxCell>
        <mxCell id="NlZj7tw6HwKpVnlPrFdB-34" style="edgeStyle=orthogonalEdgeStyle;rounded=0;orthogonalLoop=1;jettySize=auto;html=1;" edge="1" parent="DkH791YUuvN2VfSNtMLN-1" source="NlZj7tw6HwKpVnlPrFdB-12" target="NlZj7tw6HwKpVnlPrFdB-20">
          <mxGeometry relative="1" as="geometry" />
        </mxCell>
        <mxCell id="NlZj7tw6HwKpVnlPrFdB-12" value="" style="sketch=0;points=[[0,0,0],[0.25,0,0],[0.5,0,0],[0.75,0,0],[1,0,0],[0,1,0],[0.25,1,0],[0.5,1,0],[0.75,1,0],[1,1,0],[0,0.25,0],[0,0.5,0],[0,0.75,0],[1,0.25,0],[1,0.5,0],[1,0.75,0]];outlineConnect=0;fontColor=#232F3E;gradientColor=#4D72F3;gradientDirection=north;fillColor=#3334B9;strokeColor=#ffffff;dashed=0;verticalLabelPosition=bottom;verticalAlign=top;align=center;html=1;fontSize=12;fontStyle=0;aspect=fixed;shape=mxgraph.aws4.resourceIcon;resIcon=mxgraph.aws4.dynamodb;" vertex="1" parent="DkH791YUuvN2VfSNtMLN-1">
          <mxGeometry x="530" y="601" width="79" height="79" as="geometry" />
        </mxCell>
        <mxCell id="NlZj7tw6HwKpVnlPrFdB-13" value="DynamoDB" style="text;html=1;align=center;verticalAlign=middle;resizable=0;points=[];autosize=1;strokeColor=none;fillColor=none;" vertex="1" parent="DkH791YUuvN2VfSNtMLN-1">
          <mxGeometry x="520.25" y="690" width="80" height="30" as="geometry" />
        </mxCell>
        <mxCell id="NlZj7tw6HwKpVnlPrFdB-37" style="edgeStyle=orthogonalEdgeStyle;rounded=0;orthogonalLoop=1;jettySize=auto;html=1;" edge="1" parent="DkH791YUuvN2VfSNtMLN-1" source="NlZj7tw6HwKpVnlPrFdB-14">
          <mxGeometry relative="1" as="geometry">
            <mxPoint x="1070" y="640" as="targetPoint" />
          </mxGeometry>
        </mxCell>
        <mxCell id="NlZj7tw6HwKpVnlPrFdB-14" value="" style="sketch=0;points=[[0,0,0],[0.25,0,0],[0.5,0,0],[0.75,0,0],[1,0,0],[0,1,0],[0.25,1,0],[0.5,1,0],[0.75,1,0],[1,1,0],[0,0.25,0],[0,0.5,0],[0,0.75,0],[1,0.25,0],[1,0.5,0],[1,0.75,0]];outlineConnect=0;fontColor=#232F3E;gradientColor=#F78E04;gradientDirection=north;fillColor=#D05C17;strokeColor=#ffffff;dashed=0;verticalLabelPosition=bottom;verticalAlign=top;align=center;html=1;fontSize=12;fontStyle=0;aspect=fixed;shape=mxgraph.aws4.resourceIcon;resIcon=mxgraph.aws4.lambda;" vertex="1" parent="DkH791YUuvN2VfSNtMLN-1">
          <mxGeometry x="882" y="601" width="78" height="78" as="geometry" />
        </mxCell>
        <mxCell id="NlZj7tw6HwKpVnlPrFdB-33" style="edgeStyle=orthogonalEdgeStyle;rounded=0;orthogonalLoop=1;jettySize=auto;html=1;" edge="1" parent="DkH791YUuvN2VfSNtMLN-1" source="NlZj7tw6HwKpVnlPrFdB-15">
          <mxGeometry relative="1" as="geometry">
            <mxPoint x="530" y="640" as="targetPoint" />
          </mxGeometry>
        </mxCell>
        <mxCell id="NlZj7tw6HwKpVnlPrFdB-15" value="" style="sketch=0;points=[[0,0,0],[0.25,0,0],[0.5,0,0],[0.75,0,0],[1,0,0],[0,1,0],[0.25,1,0],[0.5,1,0],[0.75,1,0],[1,1,0],[0,0.25,0],[0,0.5,0],[0,0.75,0],[1,0.25,0],[1,0.5,0],[1,0.75,0]];outlineConnect=0;fontColor=#232F3E;gradientColor=#F78E04;gradientDirection=north;fillColor=#D05C17;strokeColor=#ffffff;dashed=0;verticalLabelPosition=bottom;verticalAlign=top;align=center;html=1;fontSize=12;fontStyle=0;aspect=fixed;shape=mxgraph.aws4.resourceIcon;resIcon=mxgraph.aws4.lambda;" vertex="1" parent="DkH791YUuvN2VfSNtMLN-1">
          <mxGeometry x="380" y="600" width="79" height="79" as="geometry" />
        </mxCell>
        <mxCell id="NlZj7tw6HwKpVnlPrFdB-43" style="edgeStyle=orthogonalEdgeStyle;rounded=0;orthogonalLoop=1;jettySize=auto;html=1;" edge="1" parent="DkH791YUuvN2VfSNtMLN-1" source="NlZj7tw6HwKpVnlPrFdB-18" target="NlZj7tw6HwKpVnlPrFdB-44">
          <mxGeometry relative="1" as="geometry">
            <mxPoint x="1220" y="840" as="targetPoint" />
          </mxGeometry>
        </mxCell>
        <mxCell id="NlZj7tw6HwKpVnlPrFdB-18" value="" style="sketch=0;points=[[0,0,0],[0.25,0,0],[0.5,0,0],[0.75,0,0],[1,0,0],[0,1,0],[0.25,1,0],[0.5,1,0],[0.75,1,0],[1,1,0],[0,0.25,0],[0,0.5,0],[0,0.75,0],[1,0.25,0],[1,0.5,0],[1,0.75,0]];outlineConnect=0;fontColor=#232F3E;gradientColor=#F78E04;gradientDirection=north;fillColor=#D05C17;strokeColor=#ffffff;dashed=0;verticalLabelPosition=bottom;verticalAlign=top;align=center;html=1;fontSize=12;fontStyle=0;aspect=fixed;shape=mxgraph.aws4.resourceIcon;resIcon=mxgraph.aws4.ec2;" vertex="1" parent="DkH791YUuvN2VfSNtMLN-1">
          <mxGeometry x="1080" y="600" width="78" height="78" as="geometry" />
        </mxCell>
        <mxCell id="NlZj7tw6HwKpVnlPrFdB-19" value="devices" style="sketch=0;outlineConnect=0;gradientColor=none;fontColor=#545B64;strokeColor=none;fillColor=#879196;dashed=0;verticalLabelPosition=bottom;verticalAlign=top;align=center;html=1;fontSize=12;fontStyle=0;aspect=fixed;shape=mxgraph.aws4.illustration_devices;pointerEvents=1" vertex="1" parent="DkH791YUuvN2VfSNtMLN-1">
          <mxGeometry x="-80" y="606.13" width="100" height="73" as="geometry" />
        </mxCell>
        <mxCell id="NlZj7tw6HwKpVnlPrFdB-35" style="edgeStyle=orthogonalEdgeStyle;rounded=0;orthogonalLoop=1;jettySize=auto;html=1;" edge="1" parent="DkH791YUuvN2VfSNtMLN-1" source="NlZj7tw6HwKpVnlPrFdB-20">
          <mxGeometry relative="1" as="geometry">
            <mxPoint x="880" y="640" as="targetPoint" />
          </mxGeometry>
        </mxCell>
        <mxCell id="NlZj7tw6HwKpVnlPrFdB-20" value="" style="sketch=0;outlineConnect=0;fontColor=#232F3E;gradientColor=none;fillColor=#2E27AD;strokeColor=none;dashed=0;verticalLabelPosition=bottom;verticalAlign=top;align=center;html=1;fontSize=12;fontStyle=0;aspect=fixed;pointerEvents=1;shape=mxgraph.aws4.dynamodb_stream;" vertex="1" parent="DkH791YUuvN2VfSNtMLN-1">
          <mxGeometry x="703.25" y="601" width="78" height="78" as="geometry" />
        </mxCell>
        <mxCell id="NlZj7tw6HwKpVnlPrFdB-21" value="Lambda" style="text;html=1;align=center;verticalAlign=middle;resizable=0;points=[];autosize=1;strokeColor=none;fillColor=none;" vertex="1" parent="DkH791YUuvN2VfSNtMLN-1">
          <mxGeometry x="384.5" y="690" width="70" height="30" as="geometry" />
        </mxCell>
        <mxCell id="NlZj7tw6HwKpVnlPrFdB-22" value="DynamoDB Streams" style="text;html=1;align=center;verticalAlign=middle;resizable=0;points=[];autosize=1;strokeColor=none;fillColor=none;" vertex="1" parent="DkH791YUuvN2VfSNtMLN-1">
          <mxGeometry x="677.25" y="690" width="130" height="30" as="geometry" />
        </mxCell>
        <mxCell id="NlZj7tw6HwKpVnlPrFdB-42" style="edgeStyle=orthogonalEdgeStyle;rounded=0;orthogonalLoop=1;jettySize=auto;html=1;" edge="1" parent="DkH791YUuvN2VfSNtMLN-1" source="NlZj7tw6HwKpVnlPrFdB-23" target="NlZj7tw6HwKpVnlPrFdB-11">
          <mxGeometry relative="1" as="geometry">
            <Array as="points">
              <mxPoint x="925" y="760" />
              <mxPoint x="259" y="760" />
            </Array>
          </mxGeometry>
        </mxCell>
        <mxCell id="NlZj7tw6HwKpVnlPrFdB-23" value="Lambda" style="text;html=1;align=center;verticalAlign=middle;resizable=0;points=[];autosize=1;strokeColor=none;fillColor=none;" vertex="1" parent="DkH791YUuvN2VfSNtMLN-1">
          <mxGeometry x="890" y="690" width="70" height="30" as="geometry" />
        </mxCell>
        <mxCell id="NlZj7tw6HwKpVnlPrFdB-24" value="EC2 / VM" style="text;html=1;align=center;verticalAlign=middle;resizable=0;points=[];autosize=1;strokeColor=none;fillColor=none;" vertex="1" parent="DkH791YUuvN2VfSNtMLN-1">
          <mxGeometry x="1084" y="688" width="70" height="30" as="geometry" />
        </mxCell>
        <mxCell id="NlZj7tw6HwKpVnlPrFdB-26" value="" style="edgeStyle=orthogonalEdgeStyle;html=1;endArrow=block;elbow=vertical;startArrow=block;startFill=1;endFill=1;strokeColor=#545B64;rounded=0;" edge="1" parent="DkH791YUuvN2VfSNtMLN-1" source="NlZj7tw6HwKpVnlPrFdB-19">
          <mxGeometry width="100" relative="1" as="geometry">
            <mxPoint x="120" y="650" as="sourcePoint" />
            <mxPoint x="220" y="650" as="targetPoint" />
            <Array as="points">
              <mxPoint x="130" y="650" />
              <mxPoint x="130" y="650" />
            </Array>
          </mxGeometry>
        </mxCell>
        <mxCell id="NlZj7tw6HwKpVnlPrFdB-30" value="" style="edgeStyle=none;orthogonalLoop=1;jettySize=auto;html=1;endArrow=classic;startArrow=classic;endSize=8;startSize=8;rounded=0;entryX=0;entryY=0.5;entryDx=0;entryDy=0;entryPerimeter=0;" edge="1" parent="DkH791YUuvN2VfSNtMLN-1" target="NlZj7tw6HwKpVnlPrFdB-11">
          <mxGeometry width="100" relative="1" as="geometry">
            <mxPoint x="-40" y="710" as="sourcePoint" />
            <mxPoint x="160" y="820" as="targetPoint" />
            <Array as="points">
              <mxPoint x="-40" y="840" />
              <mxPoint x="80" y="839" />
            </Array>
          </mxGeometry>
        </mxCell>
        <mxCell id="NlZj7tw6HwKpVnlPrFdB-40" value="" style="edgeStyle=orthogonalEdgeStyle;html=1;endArrow=block;elbow=vertical;startArrow=block;startFill=1;endFill=1;strokeColor=#545B64;rounded=0;entryX=0.471;entryY=1.133;entryDx=0;entryDy=0;entryPerimeter=0;" edge="1" parent="DkH791YUuvN2VfSNtMLN-1" target="NlZj7tw6HwKpVnlPrFdB-24">
          <mxGeometry width="100" relative="1" as="geometry">
            <mxPoint x="300" y="839" as="sourcePoint" />
            <mxPoint x="1120" y="838.5" as="targetPoint" />
          </mxGeometry>
        </mxCell>
        <mxCell id="NlZj7tw6HwKpVnlPrFdB-44" value="TERMINATED" style="ellipse;whiteSpace=wrap;html=1;" vertex="1" parent="DkH791YUuvN2VfSNtMLN-1">
          <mxGeometry x="1160" y="800" width="120" height="80" as="geometry" />
        </mxCell>
        <mxCell id="NlZj7tw6HwKpVnlPrFdB-45" value="Upload bash script to s3" style="text;html=1;align=center;verticalAlign=middle;resizable=0;points=[];autosize=1;strokeColor=none;fillColor=none;" vertex="1" parent="DkH791YUuvN2VfSNtMLN-1">
          <mxGeometry x="520.25" y="770" width="150" height="30" as="geometry" />
        </mxCell>
        <mxCell id="NlZj7tw6HwKpVnlPrFdB-46" value="Get Input file from S3 and append text to it.&amp;nbsp;&lt;br&gt;Put New output in S3 Back" style="text;html=1;align=center;verticalAlign=middle;resizable=0;points=[];autosize=1;strokeColor=none;fillColor=none;" vertex="1" parent="DkH791YUuvN2VfSNtMLN-1">
          <mxGeometry x="500" y="843" width="260" height="40" as="geometry" />
        </mxCell>
        <mxCell id="NlZj7tw6HwKpVnlPrFdB-47" value="After uploading&amp;nbsp;&lt;br&gt;Output File in S3" style="text;html=1;align=center;verticalAlign=middle;resizable=0;points=[];autosize=1;strokeColor=none;fillColor=none;" vertex="1" parent="DkH791YUuvN2VfSNtMLN-1">
          <mxGeometry x="1230" y="700" width="110" height="40" as="geometry" />
        </mxCell>
        <mxCell id="NlZj7tw6HwKpVnlPrFdB-48" value="Upload Input File" style="text;html=1;align=center;verticalAlign=middle;resizable=0;points=[];autosize=1;strokeColor=none;fillColor=none;" vertex="1" parent="DkH791YUuvN2VfSNtMLN-1">
          <mxGeometry x="70" y="853" width="110" height="30" as="geometry" />
        </mxCell>
        <mxCell id="NlZj7tw6HwKpVnlPrFdB-49" value="Store meta data about File" style="text;html=1;align=center;verticalAlign=middle;resizable=0;points=[];autosize=1;strokeColor=none;fillColor=none;" vertex="1" parent="DkH791YUuvN2VfSNtMLN-1">
          <mxGeometry x="44.5" y="606.13" width="160" height="30" as="geometry" />
        </mxCell>
      </root>
    </mxGraphModel>
  </diagram>
  <diagram id="BPTiVONayAM7PrgXhnaD" name="01 - skip">
    <mxGraphModel dx="601" dy="370" grid="1" gridSize="10" guides="1" tooltips="1" connect="1" arrows="1" fold="1" page="1" pageScale="1" pageWidth="1920" pageHeight="1200" math="0" shadow="0">
      <root>
        <mxCell id="0" />
        <mxCell id="1" parent="0" />
        <mxCell id="eOrTG2478djyAWoUoiWV-5" style="edgeStyle=orthogonalEdgeStyle;rounded=0;orthogonalLoop=1;jettySize=auto;html=1;exitX=1;exitY=0.5;exitDx=0;exitDy=0;fontSize=15;" edge="1" parent="1" source="eOrTG2478djyAWoUoiWV-1" target="eOrTG2478djyAWoUoiWV-4">
          <mxGeometry relative="1" as="geometry" />
        </mxCell>
        <mxCell id="eOrTG2478djyAWoUoiWV-1" value="Not familiar with Typescript at all?" style="rounded=0;whiteSpace=wrap;html=1;fillColor=#dae8fc;strokeColor=#6c8ebf;fontStyle=1;fontSize=15;" vertex="1" parent="1">
          <mxGeometry x="560" y="330" width="190" height="80" as="geometry" />
        </mxCell>
        <mxCell id="eOrTG2478djyAWoUoiWV-2" value="Familiar with Typescript, but not how to use it with React?" style="rounded=0;whiteSpace=wrap;html=1;fillColor=#dae8fc;strokeColor=#6c8ebf;fontStyle=1;fontSize=15;" vertex="1" parent="1">
          <mxGeometry x="560" y="430" width="190" height="80" as="geometry" />
        </mxCell>
        <mxCell id="eOrTG2478djyAWoUoiWV-3" value="Familiar with Typescript + React?" style="rounded=0;whiteSpace=wrap;html=1;fillColor=#dae8fc;strokeColor=#6c8ebf;fontStyle=1;fontSize=15;" vertex="1" parent="1">
          <mxGeometry x="560" y="530" width="190" height="80" as="geometry" />
        </mxCell>
        <mxCell id="eOrTG2478djyAWoUoiWV-7" style="edgeStyle=orthogonalEdgeStyle;rounded=0;orthogonalLoop=1;jettySize=auto;html=1;exitX=1;exitY=0.5;exitDx=0;exitDy=0;fontSize=13;" edge="1" parent="1" source="eOrTG2478djyAWoUoiWV-4" target="eOrTG2478djyAWoUoiWV-6">
          <mxGeometry relative="1" as="geometry" />
        </mxCell>
        <mxCell id="eOrTG2478djyAWoUoiWV-4" value="&lt;span style=&quot;font-weight: normal; font-size: 13px;&quot;&gt;Skip to the end of the course, find the section on Typescript Basics&lt;/span&gt;" style="rounded=0;whiteSpace=wrap;html=1;fontStyle=1;fontSize=13;" vertex="1" parent="1">
          <mxGeometry x="770" y="330" width="160" height="80" as="geometry" />
        </mxCell>
        <mxCell id="eOrTG2478djyAWoUoiWV-6" value="&lt;span style=&quot;font-weight: normal; font-size: 13px;&quot;&gt;Then come back to this section&lt;/span&gt;" style="rounded=0;whiteSpace=wrap;html=1;fontStyle=1;fontSize=13;" vertex="1" parent="1">
          <mxGeometry x="950" y="330" width="160" height="80" as="geometry" />
        </mxCell>
        <mxCell id="eOrTG2478djyAWoUoiWV-8" style="edgeStyle=orthogonalEdgeStyle;rounded=0;orthogonalLoop=1;jettySize=auto;html=1;exitX=1;exitY=0.5;exitDx=0;exitDy=0;fontSize=15;" edge="1" parent="1" target="eOrTG2478djyAWoUoiWV-9">
          <mxGeometry relative="1" as="geometry">
            <mxPoint x="750" y="470" as="sourcePoint" />
          </mxGeometry>
        </mxCell>
        <mxCell id="eOrTG2478djyAWoUoiWV-9" value="&lt;span style=&quot;font-weight: normal; font-size: 13px;&quot;&gt;Continue on to the next video&lt;/span&gt;" style="rounded=0;whiteSpace=wrap;html=1;fontStyle=1;fontSize=13;" vertex="1" parent="1">
          <mxGeometry x="770" y="430" width="160" height="80" as="geometry" />
        </mxCell>
        <mxCell id="eOrTG2478djyAWoUoiWV-10" style="edgeStyle=orthogonalEdgeStyle;rounded=0;orthogonalLoop=1;jettySize=auto;html=1;exitX=1;exitY=0.5;exitDx=0;exitDy=0;fontSize=15;" edge="1" parent="1" target="eOrTG2478djyAWoUoiWV-11">
          <mxGeometry relative="1" as="geometry">
            <mxPoint x="750" y="570" as="sourcePoint" />
          </mxGeometry>
        </mxCell>
        <mxCell id="eOrTG2478djyAWoUoiWV-11" value="&lt;span style=&quot;font-weight: normal; font-size: 13px;&quot;&gt;Skip to the section called &#39;The Big App&#39;&lt;/span&gt;" style="rounded=0;whiteSpace=wrap;html=1;fontStyle=1;fontSize=13;" vertex="1" parent="1">
          <mxGeometry x="770" y="530" width="160" height="80" as="geometry" />
        </mxCell>
      </root>
    </mxGraphModel>
  </diagram>
  <diagram id="JCfh4bLl4dXcvJP2hXin" name="02 - goal">
    <mxGraphModel dx="601" dy="370" grid="1" gridSize="10" guides="1" tooltips="1" connect="1" arrows="1" fold="1" page="1" pageScale="1" pageWidth="1920" pageHeight="1200" math="0" shadow="0">
      <root>
        <mxCell id="M81baauBHJmk76yHgUAc-0" />
        <mxCell id="M81baauBHJmk76yHgUAc-1" parent="M81baauBHJmk76yHgUAc-0" />
        <mxCell id="M81baauBHJmk76yHgUAc-2" value="npx create-react-app &amp;lt;appname&amp;gt; --template typescript" style="rounded=0;whiteSpace=wrap;html=1;fontSize=19;fontStyle=1;fillColor=#dae8fc;strokeColor=#6c8ebf;" vertex="1" parent="M81baauBHJmk76yHgUAc-1">
          <mxGeometry x="540" y="320" width="530" height="60" as="geometry" />
        </mxCell>
        <mxCell id="M81baauBHJmk76yHgUAc-3" value="Generates a new React project with Typescript support built in" style="text;html=1;strokeColor=none;fillColor=none;align=center;verticalAlign=middle;whiteSpace=wrap;rounded=0;fontSize=15;fontStyle=2" vertex="1" parent="M81baauBHJmk76yHgUAc-1">
          <mxGeometry x="697.5" y="380" width="215" height="50" as="geometry" />
        </mxCell>
      </root>
    </mxGraphModel>
  </diagram>
  <diagram id="atQmLfXv8UWYIb9OjPu6" name="05 - files">
    <mxGraphModel dx="501" dy="309" grid="1" gridSize="10" guides="1" tooltips="1" connect="1" arrows="1" fold="1" page="1" pageScale="1" pageWidth="1920" pageHeight="1200" math="0" shadow="0">
      <root>
        <mxCell id="WNI4VBDebxYHHpWnMr9D-0" />
        <mxCell id="WNI4VBDebxYHHpWnMr9D-1" parent="WNI4VBDebxYHHpWnMr9D-0" />
        <mxCell id="WNI4VBDebxYHHpWnMr9D-6" style="edgeStyle=orthogonalEdgeStyle;rounded=0;orthogonalLoop=1;jettySize=auto;html=1;exitX=1;exitY=0.5;exitDx=0;exitDy=0;fontSize=15;" edge="1" parent="WNI4VBDebxYHHpWnMr9D-1" source="WNI4VBDebxYHHpWnMr9D-2" target="WNI4VBDebxYHHpWnMr9D-3">
          <mxGeometry relative="1" as="geometry" />
        </mxCell>
        <mxCell id="WNI4VBDebxYHHpWnMr9D-2" value="Will the file contain a React component, or any kind of JSX?" style="rounded=0;whiteSpace=wrap;html=1;strokeWidth=1;fontSize=15;fillColor=#dae8fc;strokeColor=#6c8ebf;fontStyle=1" vertex="1" parent="WNI4VBDebxYHHpWnMr9D-1">
          <mxGeometry x="540" y="350" width="230" height="70" as="geometry" />
        </mxCell>
        <mxCell id="WNI4VBDebxYHHpWnMr9D-3" value="Use the extension &#39;.tsx&#39;" style="rounded=0;whiteSpace=wrap;html=1;strokeWidth=1;fontSize=15;fillColor=#f5f5f5;strokeColor=#666666;fontColor=#333333;" vertex="1" parent="WNI4VBDebxYHHpWnMr9D-1">
          <mxGeometry x="800" y="350" width="230" height="70" as="geometry" />
        </mxCell>
        <mxCell id="WNI4VBDebxYHHpWnMr9D-7" style="edgeStyle=orthogonalEdgeStyle;rounded=0;orthogonalLoop=1;jettySize=auto;html=1;exitX=1;exitY=0.5;exitDx=0;exitDy=0;fontSize=15;" edge="1" parent="WNI4VBDebxYHHpWnMr9D-1" source="WNI4VBDebxYHHpWnMr9D-4" target="WNI4VBDebxYHHpWnMr9D-5">
          <mxGeometry relative="1" as="geometry" />
        </mxCell>
        <mxCell id="WNI4VBDebxYHHpWnMr9D-4" value="No JSX?" style="rounded=0;whiteSpace=wrap;html=1;strokeWidth=1;fontSize=15;fillColor=#dae8fc;strokeColor=#6c8ebf;fontStyle=1" vertex="1" parent="WNI4VBDebxYHHpWnMr9D-1">
          <mxGeometry x="540" y="440" width="230" height="70" as="geometry" />
        </mxCell>
        <mxCell id="WNI4VBDebxYHHpWnMr9D-5" value="Use &#39;.ts&#39;" style="rounded=0;whiteSpace=wrap;html=1;strokeWidth=1;fontSize=15;fillColor=#f5f5f5;strokeColor=#666666;fontColor=#333333;" vertex="1" parent="WNI4VBDebxYHHpWnMr9D-1">
          <mxGeometry x="800" y="440" width="230" height="70" as="geometry" />
        </mxCell>
      </root>
    </mxGraphModel>
  </diagram>
  <diagram id="6bUz586bJ5mDt1HqkK0k" name="04 - g">
    <mxGraphModel dx="501" dy="309" grid="1" gridSize="10" guides="1" tooltips="1" connect="1" arrows="1" fold="1" page="1" pageScale="1" pageWidth="1920" pageHeight="1200" math="0" shadow="0">
      <root>
        <mxCell id="HFHDxbs1XOwcw3tI1yl5-0" />
        <mxCell id="HFHDxbs1XOwcw3tI1yl5-1" parent="HFHDxbs1XOwcw3tI1yl5-0" />
        <mxCell id="HFHDxbs1XOwcw3tI1yl5-2" value="Applying types to component props" style="rounded=0;whiteSpace=wrap;html=1;strokeWidth=1;fontSize=12;" vertex="1" parent="HFHDxbs1XOwcw3tI1yl5-1">
          <mxGeometry x="545" y="370" width="445" height="40" as="geometry" />
        </mxCell>
        <mxCell id="HFHDxbs1XOwcw3tI1yl5-3" value="Using Typescript with React? That&#39;s great, but &lt;i&gt;not&lt;/i&gt; &lt;i&gt;too much &lt;/i&gt;is going to change" style="rounded=0;whiteSpace=wrap;html=1;strokeWidth=1;fontSize=15;fontStyle=1;fillColor=#dae8fc;strokeColor=#6c8ebf;" vertex="1" parent="HFHDxbs1XOwcw3tI1yl5-1">
          <mxGeometry x="545" y="310" width="445" height="50" as="geometry" />
        </mxCell>
        <mxCell id="Kl-3Q9-7iWzWZQTgxmi_-0" value="" style="endArrow=classic;html=1;fontSize=15;" edge="1" parent="HFHDxbs1XOwcw3tI1yl5-1">
          <mxGeometry width="50" height="50" relative="1" as="geometry">
            <mxPoint x="538" y="370" as="sourcePoint" />
            <mxPoint x="538" y="560" as="targetPoint" />
          </mxGeometry>
        </mxCell>
        <mxCell id="Kl-3Q9-7iWzWZQTgxmi_-2" value="Applying types to state in a component" style="rounded=0;whiteSpace=wrap;html=1;strokeWidth=1;fontSize=12;" vertex="1" parent="HFHDxbs1XOwcw3tI1yl5-1">
          <mxGeometry x="545" y="420" width="445" height="40" as="geometry" />
        </mxCell>
        <mxCell id="Kl-3Q9-7iWzWZQTgxmi_-3" value="Types with event handlers" style="rounded=0;whiteSpace=wrap;html=1;strokeWidth=1;fontSize=12;" vertex="1" parent="HFHDxbs1XOwcw3tI1yl5-1">
          <mxGeometry x="545" y="470" width="445" height="40" as="geometry" />
        </mxCell>
        <mxCell id="Kl-3Q9-7iWzWZQTgxmi_-4" value="...Several other assorted areas" style="rounded=0;whiteSpace=wrap;html=1;strokeWidth=1;fontSize=12;" vertex="1" parent="HFHDxbs1XOwcw3tI1yl5-1">
          <mxGeometry x="545" y="520" width="445" height="40" as="geometry" />
        </mxCell>
      </root>
    </mxGraphModel>
  </diagram>
  <diagram name="06 - props" id="I4Kq8XgnJBIR2MAVMaiA">
    <mxGraphModel dx="462" dy="285" grid="1" gridSize="10" guides="1" tooltips="1" connect="1" arrows="1" fold="1" page="1" pageScale="1" pageWidth="1920" pageHeight="1200" math="0" shadow="0">
      <root>
        <mxCell id="jxtUpPECSzwhJA55Y86D-0" />
        <mxCell id="jxtUpPECSzwhJA55Y86D-1" parent="jxtUpPECSzwhJA55Y86D-0" />
        <mxCell id="jxtUpPECSzwhJA55Y86D-2" value="Child" style="rounded=0;whiteSpace=wrap;html=1;strokeWidth=1;fontSize=20;fillColor=#dae8fc;strokeColor=#6c8ebf;fontStyle=1" vertex="1" parent="jxtUpPECSzwhJA55Y86D-1">
          <mxGeometry x="640" y="540" width="200" height="50" as="geometry" />
        </mxCell>
        <mxCell id="jxtUpPECSzwhJA55Y86D-3" style="edgeStyle=orthogonalEdgeStyle;rounded=0;orthogonalLoop=1;jettySize=auto;html=1;exitX=0.5;exitY=1;exitDx=0;exitDy=0;fontSize=13;" edge="1" parent="jxtUpPECSzwhJA55Y86D-1" source="jxtUpPECSzwhJA55Y86D-4" target="jxtUpPECSzwhJA55Y86D-5">
          <mxGeometry relative="1" as="geometry" />
        </mxCell>
        <mxCell id="jxtUpPECSzwhJA55Y86D-4" value="Parent" style="rounded=0;whiteSpace=wrap;html=1;strokeWidth=1;fontSize=20;fillColor=#dae8fc;strokeColor=#6c8ebf;fontStyle=1" vertex="1" parent="jxtUpPECSzwhJA55Y86D-1">
          <mxGeometry x="640" y="350" width="200" height="50" as="geometry" />
        </mxCell>
        <mxCell id="jxtUpPECSzwhJA55Y86D-5" value="&lt;i style=&quot;font-size: 13px;&quot;&gt;Interface to define what props Child expects to receive&lt;/i&gt;" style="rounded=0;whiteSpace=wrap;html=1;strokeWidth=1;fontSize=13;" vertex="1" parent="jxtUpPECSzwhJA55Y86D-1">
          <mxGeometry x="650" y="490" width="180" height="50" as="geometry" />
        </mxCell>
      </root>
    </mxGraphModel>
  </diagram>
  <diagram id="M5MK8OM1UlMyjGtzQl6R" name="06 - props">
    <mxGraphModel dx="501" dy="309" grid="1" gridSize="10" guides="1" tooltips="1" connect="1" arrows="1" fold="1" page="1" pageScale="1" pageWidth="1920" pageHeight="1200" math="0" shadow="0">
      <root>
        <mxCell id="PPITGFVunQMJQRbVhBbF-0" />
        <mxCell id="PPITGFVunQMJQRbVhBbF-1" parent="PPITGFVunQMJQRbVhBbF-0" />
        <mxCell id="PPITGFVunQMJQRbVhBbF-2" value="Child" style="rounded=0;whiteSpace=wrap;html=1;strokeWidth=1;fontSize=20;fillColor=#dae8fc;strokeColor=#6c8ebf;fontStyle=1" vertex="1" parent="PPITGFVunQMJQRbVhBbF-1">
          <mxGeometry x="640" y="540" width="200" height="50" as="geometry" />
        </mxCell>
        <mxCell id="PPITGFVunQMJQRbVhBbF-8" style="edgeStyle=orthogonalEdgeStyle;rounded=0;orthogonalLoop=1;jettySize=auto;html=1;exitX=0.5;exitY=1;exitDx=0;exitDy=0;fontSize=13;" edge="1" parent="PPITGFVunQMJQRbVhBbF-1" source="PPITGFVunQMJQRbVhBbF-3" target="PPITGFVunQMJQRbVhBbF-7">
          <mxGeometry relative="1" as="geometry" />
        </mxCell>
        <mxCell id="PPITGFVunQMJQRbVhBbF-3" value="Parent" style="rounded=0;whiteSpace=wrap;html=1;strokeWidth=1;fontSize=20;fillColor=#dae8fc;strokeColor=#6c8ebf;fontStyle=1" vertex="1" parent="PPITGFVunQMJQRbVhBbF-1">
          <mxGeometry x="640" y="350" width="200" height="50" as="geometry" />
        </mxCell>
        <mxCell id="PPITGFVunQMJQRbVhBbF-7" value="&lt;i style=&quot;font-size: 13px;&quot;&gt;Interface to define what props Child expects to receive&lt;/i&gt;" style="rounded=0;whiteSpace=wrap;html=1;strokeWidth=1;fontSize=13;" vertex="1" parent="PPITGFVunQMJQRbVhBbF-1">
          <mxGeometry x="650" y="490" width="180" height="50" as="geometry" />
        </mxCell>
        <mxCell id="qf22YwxoxhJM1Dfvj2pT-0" style="edgeStyle=orthogonalEdgeStyle;rounded=0;orthogonalLoop=1;jettySize=auto;html=1;exitX=0;exitY=0.5;exitDx=0;exitDy=0;entryX=1;entryY=0.5;entryDx=0;entryDy=0;fontSize=13;" edge="1" parent="PPITGFVunQMJQRbVhBbF-1" source="PPITGFVunQMJQRbVhBbF-9" target="PPITGFVunQMJQRbVhBbF-3">
          <mxGeometry relative="1" as="geometry" />
        </mxCell>
        <mxCell id="PPITGFVunQMJQRbVhBbF-9" value="Are we providing the correct props to Child when we show it in Parent?" style="rounded=0;whiteSpace=wrap;html=1;strokeWidth=1;fontSize=13;fillColor=#f8cecc;strokeColor=#b85450;" vertex="1" parent="PPITGFVunQMJQRbVhBbF-1">
          <mxGeometry x="870" y="410" width="230" height="50" as="geometry" />
        </mxCell>
        <mxCell id="PPITGFVunQMJQRbVhBbF-10" value="Two Big Checks by Typescript" style="text;html=1;strokeColor=none;fillColor=none;align=center;verticalAlign=middle;whiteSpace=wrap;rounded=0;fontSize=13;fontStyle=2" vertex="1" parent="PPITGFVunQMJQRbVhBbF-1">
          <mxGeometry x="917.5" y="380" width="135" height="20" as="geometry" />
        </mxCell>
        <mxCell id="qf22YwxoxhJM1Dfvj2pT-1" style="edgeStyle=orthogonalEdgeStyle;rounded=0;orthogonalLoop=1;jettySize=auto;html=1;exitX=0;exitY=0.5;exitDx=0;exitDy=0;entryX=0.998;entryY=0.547;entryDx=0;entryDy=0;entryPerimeter=0;fontSize=13;" edge="1" parent="PPITGFVunQMJQRbVhBbF-1" source="PPITGFVunQMJQRbVhBbF-11" target="PPITGFVunQMJQRbVhBbF-2">
          <mxGeometry relative="1" as="geometry" />
        </mxCell>
        <mxCell id="PPITGFVunQMJQRbVhBbF-11" value="Are we using the correctly named + typed props in Child?" style="rounded=0;whiteSpace=wrap;html=1;strokeWidth=1;fontSize=13;fillColor=#f8cecc;strokeColor=#b85450;" vertex="1" parent="PPITGFVunQMJQRbVhBbF-1">
          <mxGeometry x="870" y="470" width="230" height="50" as="geometry" />
        </mxCell>
      </root>
    </mxGraphModel>
  </diagram>
  <diagram id="yuvADeDZKkPjtaSXwr48" name="08 - fc">
    <mxGraphModel dx="601" dy="370" grid="1" gridSize="10" guides="1" tooltips="1" connect="1" arrows="1" fold="1" page="1" pageScale="1" pageWidth="1920" pageHeight="1200" math="0" shadow="0">
      <root>
        <mxCell id="IWIS4pKZPW2UH24JdNOo-0" />
        <mxCell id="IWIS4pKZPW2UH24JdNOo-1" parent="IWIS4pKZPW2UH24JdNOo-0" />
        <mxCell id="IWIS4pKZPW2UH24JdNOo-3" value="" style="shape=image;verticalLabelPosition=bottom;labelBackgroundColor=#ffffff;verticalAlign=top;aspect=fixed;imageAspect=0;image=data:image/png,iVBORw0KGgoAAAANSUhEUgAAA4wAAACKCAYAAADhe8QiAAAgAElEQVR4Xu2dBXRTWduFdwsFWrx4i7sUdxkGd3d3dwZ3d5fB3d1lYHDXwYq7u7v2W+/Jd0vaJm2Sppbs91//+obm3pNznnOT3H1fcwCNBEiABEiABEiABEiABEiABEiABAwQcCgz8Z6XITLF0kdGrmTOSB0vAlwjh0M4R/IjARIgARIgARIgARIgARIgARKwBQI/fwEvP/7E9affcOL2Z+y69NHgsvwIxmLpIqNu3uiIGzWcLXDgGkiABEiABEiABEiABEiABEiABAIg8Oz9Tyw5+ha7L/sUjj4EY6tCMVE+cxTCJAESIAESIAESIAESIAESIAESsEMCm85+wMz9r71X7i0YKRbt8GrgkkmABEiABEiABEiABEiABEjAFwF90agEo4Shdi7h6gfU3MVLsW3nLly9fhPfv38nSBIgARIgARIgARIgARIgARIgARsg4OTkhDSpUqJMiaJoWr+unxWN3/lKhacqwTi/iZuPnMX7Dx+iU89+8Lx02QZQcAkkQAIkQAIkQAIkQAIkQAIkQALGCGRMnw4TRg5FInc370OevfuBxvMfw2H8zpdenYv79C5Wrd8YnpeukCgJkAAJkAAJkAAJkAAJkAAJkIAdEBDRuGbxPB8rFS+jw6Hrn7zyp3T2fmHuoqUYPWmqHSDhEkmABEiABEiABEiABEiABEiABDQC3Tu1R9P6dbyBHL7xCQ7P3v3wiqPXQqNqvcbwvEzvIi8bEiABEiABEiABEiABEiABErAnAr69jBKW6vDzp5eXo+NvDB55CrLAjT1dFVwrCZAACZAACZAACZAACZAACQCIEMEJF44e8Gbx85cXHLy8vLz06aTJnpewSIAESIAESIAESIAESIAESIAE7IyAg4MDrpw64r1qEYoUjHZ2EXC5JEACJEACJEACJEACJEACJGCIAAUjrwsSIAESIAESIAESIAESIAESIAGDBCgYeWGQAAmQAAmQAAmQAAmQAAmQAAlQMPIaIAESIAESIAESIAESIAESIAESMJ0APYyms+KRJEACJEACJEACJEACJEACJGBXBCgY7Wq7uVgSIAESIAESIAESIAESIAESMJ0ABaPprHgkCZAACZAACZAACZAACZAACdgVAQpGu9puLpYESIAESIAESIAESIAESIAETCdAwWg6Kx5JAiRAAiRAAiRAAiRAAiRAAnZFgILRrrabiyUBEiABEiABEiABEiABEiAB0wlQMJrOikeSAAmQAAmQAAmQAAmQAAmQgF0RoGC0q+3mYkmABEiABEiABEiABEiABEjAdAIUjKaz4pEkQAIkQAIkQAIkQAIkQAIkYFcEKBjtaru5WBIgARIgARIgARIgARIgARIwnQAFo+mseCQJkAAJkAAJkAAJkAAJkAAJ2BUBCka72m4ulgRIgARIgARIgARIgARIgARMJ0DBaDorHkkCJEACJEACJEACJEACJEACdkWAgtGutpuLJQESIAESIAESIAESIAESIAHTCVAwms6KR5IACZAACZAACZAACZAACZCAXRGgYLSr7eZiSYAESIAESIAESIAESIAESMB0AhSMprPikSRAAiRAAiRAAiRAAiRAAiRgVwQoGO1qu7lYEiABEiABEiABEiABEiABEjCdAAWj6ax4JAmQAAmQAAmQAAmQAAmQAAnYFQEKRrvabi6WBEiABEiABEiABEiABEiABEwnQMFoOiseSQIkQAIkQAIkQAIkQAIkQAJ2RYCC0a62m4slARIgARIgARIgARIgARIgAdMJUDCazopHkgAJkAAJkAAJkAAJkAAJkIBdEaBgtKvt5mJJgARIgARIgARIgARIgARIwHQCFIyms+KRJEACJEACJEACJEACJEACJGBXBCgY7Wq7uVgSIAESIAESIAESIAESIAESMJ0ABaPprHgkCZAACZAACZAACZAACZAACdgVAQpGu9puLpYESIAESIAESIAESIAESIAETCdAwWg6Kx5JAiRAAiRAAiRAAiRAAiRAAnZFgILRrrabiyUBEiABEiABEiABEiABEiAB0wlQMJrOikeSAAmQAAmQAAmQAAmQAAmQgF0RoGC0q+3mYkmABEiABEiABEiABEiABEjAdAIUjKaz4pEkQAIkQAIkQAIkQAIkQAIkYFcEKBjtaru5WBIgARIgARIgARIgARIgARIwnQAFo+mseCQJkAAJkAAJkAAJkAAJkAAJ2BUBCka72m4ulgRIgARIgARIgARIgARIgARMJ0DBaDorHkkCJEACJEACJEACJEACJEACdkWAgtGutpuLJQESIAESIAESIAESIAESIAHTCVAwms6KR5IACZAACZAACZAACZAACZCAXRGgYLSr7eZiSYAESCBoCMiPSfasmXHqv7MWv0HEiBGQNnUqxIwZEzdu3sKDh48sHosnhk0CBfLmxs+fP/Hw8RPcu/8gbC6CsyaBMEIge9YsOHP2HH55eYWRGYetaSZ0c4O7ewJEihgR+w8dCVuT9zVbCsYwvX2cPAmQAAmEPAFHR0f0+KsDypQsjuFjJmD7zl1mTSpChAho36oZihctjMguLupcS8Yx6015cKgksHD2NCRPmkTN7frNW5i7YAkOHzseKufKSZFAWCZQqGABDO7bE3v2H8TQUePw48ePsLycUDX3nNmzonnjBkiXJrWa15Onz1C9XuNQNUdzJ0PBaC4xHk8CJBBiBJImSYwyJYrB89JlHDh8NMTmwTf+TcDJyQmD+vTAH/nzKo9Qh6698PLVK5MRyY/Q8IF9USBfHnXDcvrMOdy4dRv/7tmHm7dumzwOD7QNApXKl1WCMVeObHB3S4DvP36gW+8BOH3Gcs+1bZAJ/CrcUuRG/OQ5ccdzF149vhL4ATlCmCYQPXo0TBo9HCmSJ8OJU/+hz6Bh+PLlS5heU2iYvEeGdJg4ajgkYkaE4vGTp3Hv/n2sWrcxNEzP4jlQMFqMjieSAAn4R2DogD5I6JYAy1atxc7de60Ca9HsaUj2f+9Do5bt/BUUGdKlRb3aNQy+7+Gjx7Fl+w6rzEkG6dCmBXLlyI5jx09i6sw5Vhs3tA8kPyCjhg5A3lw5LRKLsr7YsVyxfsVitdRO3fvYjTAoX6YU8uXJZXCLlyxfhYuX7fuGPly4cBg2oA/y582N3Xv3Y+Dw0aH942DV+RWsMQJRXRPi0pGluH3+n0CP7RwlNip33gBHx3D48vEV1o2viF+/jHuUUmariISp8xt8X89Di/DigWeg56QNUKrZXIQLFx6Xji63ylqtNjE7GCh6tKiYOHoEUqZIhrPnL6jvYAkJp1lOoHvn9pDvd3nIJQ+75KGXLRgFoy3sItdAAkFMIHz48EqopUmVEkkTJ8KLl69w78ED3Lp9F0+ePjX47js3rYGzszPGTJyCTVsDf8Mjb7Jk7gwkSZxIvV/jlu2UJ8qYFcyfF8MG9jX48pr1mzBp2kyrUdN+IOQHt32XnlYbN7QPVL92TbRo0kB5FJu27miWZ1FbW+aMHpg6fhTevX+PslVqhfYlW21+Hdu0RLXKFQyO12fgUHrQAZQuUQy9u3XG5avX0KJdZ6uxD+6BHB3DI0bc5HB1S4vosZPi0/sXePfyLt4+u4UPbx4bnE6tXnsQPoIzjm8ZheunNwR6ys5RY6NKp41wcHTEl4+vsW5CRfz6+d3ouDlKdUba3IYfuO1f2RP3r+wP9Jy0ASq2X4Worolwfv9cnN/n94FbROdoiJ3Qw8f7eXn9wpcPr/Dx7VN8/fzWanOxx4FENM7+exISxI+HxctXYda8hfaIwWprnjRmBLJlyYSJf8/A2g2brTZuSA9EwRjSOxBK3t/RwRHxo7sjVuQ4uPXiOj5+fR9KZma/04gYPhLiR3NDDBdXnHtwKsRAFC1UEF07tkOUKJENzmHX3v2YMWc+nj577uP1oBCMyZMlRdmSxVVI6t4Dh/xlEjlyZCSIF9fHMf16doWMQcEY+Mspk0cGTBk3EpK/2L3vQBw9ftKiQbNkyqjGkVCo4uWrWjRGWDxJPKsxokf3nrpTBCfMmjJB/ZuCUYelYrnS6rvnyrXraN62U1jcZiT1KI5cZbshQqSoBud/x/NfnNn1txI++mZtwShju6fKhwTJc+G25068fHjJX54iMCO5xPQ+xjG8E0o3m6v+HdyCMV7SbCje8G+j8/3x7TNund+OS0eW4cPrh2HyOgnpScv38OSxI9Q0uvbur0JUaZYRmDx2JLJmzohps+Zi+ep1lg0SCs+iYAyFmxISU4ofzR2jqkxXbz1g81+48/JGSEyD76lHoFDqkmicry2+fP+ClksNP+kNSmDiHezcrpV6yi8msfiXrlzF7Tt3ET1aNOXpk6qYIhgk16xJ6w749euX95SCQjAGdr0zp4xH+rRpKBgDCVLCBVcsnIP48eJiy/adGDV+ksUjSp6ajCVWsmI1fPr02eKxwvKJUvhn99b1agkUjLqdbNKgLhrXr4ODh4+i98ChYWp7xTuYs3QXpMhSVs3745snePHwIt48v4WIztERPU5SxE+aQ3n8Xj+9gW2zGsJL7/szKARjYACGCx8BtfvovIohKRgfXDuE718+qHlEcI6KyNETKO+tmPA7umkobp3bHpil2u257Vs3R40qlfDq9RtVoOXbt29hioWLizO+fP4S4hVf+/XoihLFCmPlmvU2laJCwRimPg5BN1kKxqBja+nIIS0YtTDLX7+8sGzVGsxduMRPFTUpTiE3dTPmLvDTAoGC0dKdD/3nSYGaEYP6qeuhUs16ePvO8ogEfaFUp3EL3H9gnx4CCka/1323Tu1RoWwprNu4BROm6h5ohhXLU74nJA9QQicvHV6Cc3tn+8kZFKGTqVAznNk1He9f3fexNArG3zj0PYybptbEu5f3fLCK5ZYOeSr0Rsx4KfHzxzfsnN8KLx9dDiuXSqiZpzwk3rR6qWoBMWTkWKvVHgiOBcrDy9FDB+LseU+MnzItON7S6Hu0bNoI9WpVh0RfDbKh3GubEIzhHMPh56/QkaQbmLlIWKiXlxfk/6xp4R3D44c/ye3yXqFVMIYWnoGZR/hwTvjhT66Isb0OScGYKkVyzJk2GY6ODhbH4fsnGMVDFRKJ9dbyMPqev73lMI4eNlAVujly7AR69BsU6K+rLWuWQyr2Sf6n5IGGpEm+bmDKy1t6vrUFY1B8xpzChw/WAg4jB/dXRW9mzl2AJStWh+RlYdZ7x4yfCmVaLICDgyNObh+PqyfMn7t/gtHBMRy8gvmex5oeRt/zDyiHMSDBKJsTJaY7yrVarPI+713ehwOrepm1Z3KweHvF9D29AQ0i+an+FQ8K6Hzt9cDsqZwLuXPU81Cb+r6+jxvYuzuKFv4T5y5cRLu/uls6TLCf175Vc9SoWkm9b0h/X1SpUA6d27fGmXMX0KGr7dQ0CLOC0TmCC8pnrI5UcdMhaeyU6ob8zsub+O/ecey6vMWo6JKb8HwpCqmLasnxWbj3ym/RDA+3rKiQWRcCuPa/Jbj69KKPiz93sj9QNG0ZnLl/Ats91yNt/Iz4M3VxpI+fCZEjRlHzuPjoLDadXxWgkI0aKZpaR/I4qZEkVgr8/PUDd1/ewvVnl9X53358NfrBK5auLHIlLeD9+qm7R7Dzki7BNkuinCiXsRoSxUyGiE4R8erjC8w6OAFXnvyubFYkTWnkSV5QHR8hXAQki51K/ffdV7fw5bvPsLBlJ+aodQW1RQgfEaUzVELKOGmRLHZKRIkYDc/eP8Gjt/ex58p2nH942t8pBIZn9ewN1PW08dwKXHx0Dmnje6BAyiJIHTcD4kaLj9cfX6o9X3V6oR8++pMS4Z8raX4UTlMabjESIVqk6Pj8/ROevH2k1nHw+i5cfmL4prhR3jbqHLEYzjERL5qbeohw7ZnPfBN5aj16Z/8Ary9L92vquFHInMkDDx89Rr2mrSy6gfYtGEsWK4I/C+RDRo/0iBolihp7w+ZtWLthk9EQkmRJE6NL+7YGl7Fj915s3mZeMZ3ACEa3BPHVU8NMGT2QyN0dDx89woWLlzBjzgI0b1xfVUWzh6I38eLGwarF89XDhMEjxqj2F4G1eTOmQB5SDBw2Crv3HQjscGafL/k7pYoXQZpUqSDXnORT3r57Dxc8LymhIgV5/LM//8gPyfVNmzqVCtN98PARrl6/gc3bduC/s+dMmk9gBaMIRLlhypE1C9KkTgkXFxfcvn0HV67dwJIVq/D4ieHiVDK5qhXLo3DB378l0mB69XpdCXip5CrXfcrkyRApUiQ8e/5C9WwLDmE/+++JimlgvB3yICJa1KjB6rku0Wg64ibJgvevH2Lz1FoWCQrfgjF5ptJIlK4Q4iTKpEIxP7x+gGsn1ysxKr8HhixZxpJIlV13E+3bTu+cbJYXLrCCMX6y7EiVvTLiJsmsQnLfPLuJh9eO4MKB+Sjfdpm/RW9MEYyyviL1JkJah0ghoQ2TqvhYsnggo7nqflvFzu2dhad3z8AxnBNS56is5iZVacU+vHmIbbMaQ3IjDVnidIWRxKMYxLMZJXp8vHt1H68eX8WN/zbiyW3j9yhJMhRDmpxVIWG1Uv1W1pUyWwXET5odEZyjqVYnj2+dVEwCeiAg10G6vLUQyy09XKLGgZfXT7x/9QBvX9zFw2uHVU5nQGMYWlv+PLkxckh/9VK9Ji1x9/4Dk76/QvogSY0Z2r+3au8kJt9RO3btCZFpaRE40maqbpOWITKHoHjTMCkY3WMkRscivdXNtJjcjIsXzSlcBN0XwYNTmHlgPD5+08W561skJ2cMqzgFsaPExc3nVzFkW3d1Q66ZCJYRlf5Wr8s443cN9jOGCJpaOZvg9L1jEJHWLH8HODqEw5vPrxDD2RUCVUzExd/7RuP7T8Nx4EljpUSHIr1UoRkxyVUL5+jovY4Hr+9i8t4RePrukcG9r5OrGUqm/11lT8TypD3DUClzLVTOWsfPOSP/6eNDqNTI0QhlPXx+qRq7yDqvbqJEZ1Ca7GvbQj3g/n/BJO8lDwLEQ6eZ7IkwMeSxCyzPzkX7KaEt4jicY3iIgBR78eEZojvHgBShEZMHCMO3G356KZ5IGSejezZ1rOz9289vlPCN5KQ7X8zz0RmM+3cQfvn6oR9QbiySx9Y1evXPnr9/gq5rWwR0mEWvJ3Rzw/KFs9W5I8dNwtZ/dlo0jiYYpVKY9HkqX7okvnz9infv3iNunNjeYy5YslyFuxoyaY0xY/I4g69ZUs3NUsEo1WFHDxsE15gx1Fy0PDvJmZCKsc+eP1e5kfYgGEVYDO6nu/7LVK6J9x/8fs+ae8FMGDUMObJlwcSpM7B2Y/BVlXN0cECj+nXQsG5tJYDVZ/b7d0hvSc1ELI4YMwGHjvptHi8irW3LpqheuaI6XH5L5PoWkSIm4dyzFyzC0hVyU+9/5EhgBKMUzxnUt6eqzCcmHtKvX79CCj+JvX//QYn7YycNF8/Scpe0NR86cgy9BgxBo3q10bRhPT/b2bFbL/x39ry522z28asWz1OVG7v3GYCjJ8wv/FWzWmW0bNJQ7Wdw5UGK6KjYXudRPLppGG6e2WL2uuUETTCKh1JCLUVY/Pj+Bd8+v4NLtN/FvC7sn4dz+3Tf174tQ4EGyFq0tcHXdi/phMc3/V7TxiYbGMGYIks55C7fU7X0EPvy8Q0iRIoCx3Dh8fz+BUSJ6QbnKLGMVkk1VTDmKNkJafPUVO+xYngR/NB78F225ULEjP/7t/XUjom4dnIdCtUaDbeUeXwu28sLS4cU8CPExZOXvUR7pM2tew94eakKrRFddL8LItzP7ZkJz8OL1Wu+LV3eOur8+1cO4N7lvchboY/yan7+8FKtXzzSYiIoD67uo8JrDVnGgk2QuXBz9dKvXz9VmxRHRydEiqybh5iIx92LOxitwmtsnyWKYPe2Deo+dsTYidi2419jh4a6v8vnXKISpIerfAdKMbaTp88E+zwzZkiPaRPH4O27dyhXtXawv39QvWGYE4yRI0TBmGqzIP8rgm/ekal4+PqeKryRIUEWNP+jk/Lo7Lu2A/OPGK6qJZ6jniWHqQ/EomMzsPvKNm++tXI0RmmPynj/5R36bGyPt59f+2GvCUbxwkV0ioR9V3dgzX+L8eHre7hEiAwZ48/UJdR5q/9bhC3n1/gZI0rEqBhXbQ5EwIownHlwAu6/vg3xTqWJlwGtCnZVIkWEQY/1rQ16ksQrKGIqRZw06Fp8IO6/vqM8op2K9sW7L2+x/swy5ansVmKwGqvfpk649+qW91xEwGgiKG7U+OhbRtfnaszOAWou+iaiJygtpkssjKw8XYkqmbvsy6XH5/Hp2wfI3LIkzImyGavh6K19WH5yXpDw1ASjPGiQfZR923phrXog4QAH1M3dDMXTlVfvPeKf3j68tdqEymeqjmrZ6itBO/vQRJy4c9hbFLpGjg0PtyyomLmW8jJuOLfCzzoiR4yK8P//Uc2XorC6lr7++IJuvsThj18/g6ySrXgURg0ZoObWsEVb3Lp9x6Kt1wTj58+fVTGciX/PVDkR8t9JkyRGlw5tIJ4dEZHlq9ZW/+vb5MfL1fV3pT55ffzIoUicKKFF5b8tEYwiCtcsWYCoUaMocThg6Eh4XrykfujTpU2Nrh3aKkEsFpSCMW/unD6qavq3KZI7IcInKExuwtu1bIavX7+hWLnKVnmL+TOmqj5gE6ZMx7pNlt1gWzIRfaH0z7+7Va7u3XsPVDuY1CmTo0bVysjkkR5NW3dQRZ98W4smDVG/dg0lBiWPd9PW7fjw4aO6ZpvUr6uqfKrvCxNuvAIjGKdPGguP9OnUew8bPQ4nTp9R+584oTt6desMefAin7u6jVviwSO/DyClwbTcbMlxY4cPVkWs5ixYjBGD++P1mzeYt3ApLly6rD578tCkSav2uH7z92+JJexNOUeKIUlRpHGTp2HD5q2mnOJ9jHx3rFuxyMdnpkX7zrh85ZpZ45h7sHvq/Chce6w6bcv0esqTZolpglG8XOIpOvnPeNy+sEOFHUaPk0xVXo2XJKsSkWvGlFb/6+f7M2JkJcw0ixApGsq2WqT+GVyCMW7izCjReIZ6z2f3zuLI+iH48OaRCh11S5kXkuupVZA11lbDVMFYoOpgVZX26+d3WD26pA8cThFc1Hd2+nx14fFHI1w5vkoJvHR5auHVk2vwPLgQ379+RNF6E1VRnZWjivvhmaVoa3gUaKDE4Jnd01S7k29fPiixJ7momjf36MZhuHnW7/eYJhi/f/sEJydnXP9vI87unqFEp+xTtuLt1YMB9Vuyezqk36VvE89iySa6llDy+kWZ97dP6t/SfiSWe3pkLNhYic1dizsYFK4BXY+b1yxTnxt5kCsPdIPKJGohVcoUVh1eHuLVrl5F3SPIg10Jqw2O7yr9RYiXc/jAvnj79h3KVaNgtOoGmzNYjewNUTZjVeX16bm+jR/vnYQy9is7WgmsXhvaGvXO1c7ZBKUyVMLnbx/VOG8+v0Zi1+QYWG4cxEs0ac9w/HfvmMGpaYJRXtxxaZPySOmbCNEBZcepkErxDnZf18rPOOK9kpBRESdd1zTHp28ffRyTKGZSDK04Wf1tzqFJOHhjt1FMqeOlR5/SI1WYpCbsxHP6/ouuN9GkmgtVeGOXNc0UN0MW0jmMzQp0wB8piykOItQNeTPF+yshu4byVa3BUxOMwsf3gwT5m4j8qbWWqAcNi4/PxK7Lfm9gepUarkJZT945jKn7RhlkLd5wyVMNKO82pHIYa1WrorwmYiUqVIMIPktME4wfP35E5559/dyoSQjfwD491NANm7fBrTt3TXqbhbOnQYrtBJeHUX582rRoqrxF9Zu1Ug3q9U3Ca6WPoLTrCErBqIldUyCVr1YHb94GTW8yLVdEQhxr1G9iynSMHiMesFrVKitPlphU2r1+w7IbbHMnIp70xXOnQ3IOpfS5lEA3ZDJHuYZ9m3gRVy+ep8SlsRuroQP6qDBsCb+W0CT/8nYtFYzyNH3ciCFqeoZyQKWAxdL5s5RXf/vO3Rg+ZrxRVNIq5e8Jo9WN1qs3uoelrTt09b6WNqxcjFiurqqCoiEBbe4eBHR8zy4dUbZUCfWkfsSYiTh6/ITJFRDFe7x66XzEjaOL4BGr36w17tz1WTAloDmY+7omCuS8FSOKGA1rDGhcTTCKeNm1pKOfNhgijEQgiW2ZXhdvngUs4CUUtHp3XRh/cAnGwnXGwj1VfhWeu2VaHT9eM8n3LNl4phKQgRWM5dssV9Vnn9w+hV2L2htELGIqc+EWile0WInx4NpBHFrTX4UNy78rtFtpMKRVvIiVO65T8xSPrnh2fVvBGiOQOF0htVYpzuM7JFT/2rhybCXEy6lv4mEs1WyOCnWVIkgbp/itji7CNNOfTfH10xusHqN7IGXIwjtFMvgQIaDrTl5fOOtv9Xu2efsOjB6vuw8NCjMWwWDN95Iewa06dAmW7yuZt0f6tOjZtTOSJEqoolJ69fcbpWjN9QXnWGHKwyh5i5NrLIQIh7mHJ+PA9V0GWfUuPUJ56SQHUDxuhkzCVweVn6DCH0/cOYRp+8egf9kxKhzw4I1dmHPI+IdEE4wiyNqtqG9wfAkVlZBRsf6bOqm8QM3EMzil1hLlTdt5aROW+hKc2nGa+BDPYd+NHYxeF5pglAMkxHHI1u649eL3U1RNMLZcWtNo7l1ICsYE0d0xotI0JcTWn12ODWfNe6JlLZ6aYNRCew0Bn1hjPsQbuvn8auVV9m3anklbkkFbuvoJOTXnwx1SgrH7Xx1U+Ghgn45pgnHStJmqjYVvE0/FxlVL1Z//6tnX5NCR4BaMa5ctVDfb/hV4CY6iN1KN1j1BApMuoXFT/g6y9hRD+vVCoYIFcPHyFfVDbIlNnzgWsWK5QnoRimdLHkrMXbRUlSEPLpOenCWKFlZeuWr1GhsUhf7NRbvZkdCnKrUbKk+cb5NeXNKTSyygVhmWCsaJY4Yje5bMuC97+i0AACAASURBVHHzNhq3amdwylp7CvEyVqxRz+jDBE0wqt+SX7/QqmMXHw96NMEYXO1PpKF4zy6dkC9PbhUyLML9xavXWLNuIzZs+R0ZZGyfSpcoinatmsPF2Rlb/tmJcZOM9/Kz1nWXp3wv5SUK6IY+oPfTBOOpfyYob5hvixTZFdW66h5a7l7cEY9vnQhoSJU7GJyCUYXntlsFODjg9M4puHx0mcE5WqPoTdrcNZCjVGc1/pnd03HRgHdOXtMEo/y39L7cOqOe8hKKaYJR8hG3zWrkY65aGOivnz+wbkIFfPnoN/pM3xNqqPWIJhglJHfNWMNiT0JqJbRWbNvMhsr7qW+aYFTzGF8eXz5ZP/pLIglyZs+qejF26dUvwOvK0gPEE1eoQH5LTw/wvJw5siJmjBgqD7NNx64B5qIHOKCRA6Q+Q92a1eAaM6Z3OoL8Pko0ku/+1Ja+R2g4L0wJRs17KOC6r2uJp+8eG2So5faJEJQcQmMmOW/9y45W+WoSOiiFSp5/eKrEme+iL/pjaIJRvJIdVzY0OLwUkBFvpZhvb2XCmElUHqWY5Egaa8peMXNNVMlaV1U4bba4qtEcGH3BKHmTE3f77FeVKm5ahHd0MlpoReYRkoIxf4oiaPGH7gtSvK2yB+aYtXhqgvHYrQOYfkAXUuTbJGxWBO6WC2uw+rTfcJEKmWqgajZdzo8UzpGHFlefegaYv2TovUJKMEoYWoG8uZUnLTAJ2wG11ZBCFFvX6cJy5UfJ1EbBwSkY9efoX7hkcAhGcz4TQXnsmGGDkCdXjkBVgNuzfSMkZFBMPLdSnGDRshV+WrME5Tq0/DgJRR022rjXzdgcpMCCFLvxr6m8/MDu3b4REiYlIZ4Ll/oNQ9fGt1Qwblm7XPVF9c9LmjljBkwdr/stbNu5O857+izkps1BXzAaejrukSEdIjg5BUv+ojYn+S6qVL4scufM7r0V5kQXSLiti7OLQUEfFNeX5MQlTPMH3r28i01Ta1n8FgG11ZDww+rdd6jx9yzphEcm5CMGt2AUb5t43cS2TKurelAaMnME4875rVV+npiuD2N8pMhSBonTFVEhp1I0Zs/STkYrhuoLxtM7JuHysd+fyXDhIyJ2Qg98//Lej1ArWGM4pNiNtOvYPttIZIWDA+r0PahyNaWojhSv0TdNMH7+8AJrx+nSW3ybeBdLN9d5L/ev7KHyHfVNP8RXvJDn981VVWF/+lMg0dyLUKtOHNYqpfpeZ+pUKTBl7ChIWokUqOvUvU+Q9JasV7uGypXWTCJKJL1Bip4FlLtu7t6E5PFhSjBKxcrmBTopr83Mg+ONxmZnTphTVUIVL480offP9AvEyMYO295T5f35Z6YIxjhR4mFsNV0i+oKj07D36u9qjlkT5VJ5hmIyP5mnISuUugQa59M9Mfav6Iy+YJywewjO3j9p9jUVkoJRcv4k909CNEUY+y4EE9BirMXTFMEoQl8EqjHBKOHM7Qv3gsxJM8nJPPfgJE7cPoyLj88GGIqqnRdSglHL65JKkcXLVw0Iv9HXbUEwSrGbOdN0Ten98xDZk2DU1nr33n1VQdcSk4qo8uQ3aZJEqFyhHBK6uylPX61GzZRnO6hNxNm/m9cpr9W8RUsxf7Fhz4d/85g7fTJSp0wRYGuR9SsWK0+qFI+SIlLGzBLBGNnFBf9s1BVY+XvmXKxYs87g8MJ3+QLd75F/1QP1BaO0SxGvekhajSoV0b61rrjX0RMn8e/ufapK6/0HD1Rz8dBoWuEVKbgihVcsNVsQjPohmKtGlcC3L4arDZsjGI3xlNzOu5d24+S2sSqH0ZhpglFy/NaNr6DyB02xMi0XwjV+alWBdO/yrkZPqfrXZjhHjY2bZzbj6KbhPo4zRTBGieGGSh3XqvOObxml8iR9W4b89ZGlaCvvIjk/v39VHmYRjg+uHvD2mJqyLkPHzJoyQeXn7967HwPDeB9B7QG4PJjs1L2XetBpbZP0hMQJE6r8bvGaSrqNpDosWrYSs+f7dSxY+/2Da7wwJRgrZamNyllMTyCVfD3J2/PPpI1C3zK6XDMpLtJ7QzujeX7aOKYIRimaMr2OLrRSwmLF06RZsbRlUT+PrtTuX6ub4uXH5wanmD1xHnQo0lu9NnhrN1Xkx5DpC0ZLq5mGpGBs82c3SKsSyVuU+Ztr1uJpDcGozT1zwhwonq4c0iXIpCr4avbm0yusPL0AR24G3IogpASjPM2XgjRi5arWsrgpuy0IRi15XVi07tQVnhcNP0wKDsEoLQ2kirIp9unz5yB7sqmFYkrlzTJV/l8t0JRJGTlGvLjL5s9SoTyjxk/Clu2WVeU1ZwqSX7Jknq5whKWVgLXekVJFUIraGLMFM6eqokgBhXdZIhilBcii2bqG9uIlFW+pIZM8223rV6qX/OtRpi8Yq9ZppKr/hqQtnjNdFciSa0KujbBgqXNUUQVpxFaPLmWyIPG9NlsQjDlKdVIVRSV8ctnQP4xunzmCUbyLWvVQqQ766d0zlTN46+w2fHz7JMBLRBOMH14/xIbJ1QI8XjugerftqhqqFLORojbGrGyrxaqqrXh8xfOrb6YIRil+U6OHrjLpWam4enCBwbeKESc50heoh4SpCihPq2bC5tKRJfA8uMhir+PaZQtU7u/yVWsxbbbfXE2ToQVwoKQjSMRCUFndWtVQv7buN8pYakxQvLf2GykPt6rWMRyFGBTvG9RjhinBKL0PG+RppTxQq04tCLC9vRSUkWqUxkwqhA6pMFG155BjpfKq9CkcuaOPvzdbpghGacshVVDFfHsY8yT7A63/1P2gSIEXqZJqyDSPqrwmVTKlH6EhC+uCUfZU9lbairRc6jfJO6APgbV4WlMwanOWPFUPt2zIljg3cibJp/JvxYwVzdFfa0gJxmxZMmPSGN2T0WZtOqp+cpaYLQhG/Rw0/8Jmg0MwhpaiN6VLFEPvbrpcoSJlKlmlGuukMSNUS4jg+lGXCoBSCVDMP8+cf9f90nkzVSW+/QcPo+9gn54E/fO00Nedu/ZiyCjDoe5yvCWCUaqxblypy9P3ryWJ9IZcvUQXHuefKA9tgnHN0gWQvp+9Bw5VbTHCgkm/wWINpqqpSi8/6a1nidmCYNTy7WT9y4f9abRNhDmCUYrJvHtpeeEiSwVjhXYrEC1WEtUO48Aq3YN8Q1ap4zpEiZEAt8//g8PrB/k4xBTBKCG2lTvpcrmNeRj1B5VWH3ETZULCtAWRNEMx5d0UC2ie/l2TWsqAtMRauyHo2hwFR9Ebde35U9TMks9mQOdkzuihCuFZ66FqQO8XXK+HKcEoLQmkRYSYpZ40fbDSJL1wmlK48ewKFh6b/v8KqeFV24Z/LvoNA9DONUUwSvEc6akn5jtPUf+1UTv64dJjw42dpRqsVIUVgSyhmsaqaoZ1wVgifXnUzaXrKdRuRT3V0sQcsxbPoBCM+uuQYjl/FeunqvFK2w0pQiT5qcYspASj3ISuX75ItaoJTEiFLQhG/VA+/zw4wSEYp4wbibRpAu7RKddTtbqNgiy0U+sxJe/TumMXeF6y7IZY/7qXypwiViz19pnzfaEdu339KkSJEhnrNm7BhKk6L505puVySj6g5AUas91b1ysx6F+/UTnXEsEo5/27ZR2kEqrkR0qepCGTHqHywEHMvx6KoU0wah5G6QkpvSHDgkmLhSqdN6l8OvEOiZfIErMFwZgyW0XVNkNs/cRKqsiMIQsLgrFI3fGqDcize+ewc77xUPzaffZDelYa6o9pimCUthilm+kqNu9d1gUPrx8x+fKRHMzc5XogeWZdQZ2dC1rj2d2zJp8vB0p1VKmSKmZObQGz3uT/B0vuX8O6luf5GntPyRnXcuSlxZT0oA3OXMLsWbNg4uhhKkJDIjVsxcKUYJQG9+Or6z5IU/aOwKm7lj9xlJDBv4r1Vzfs/TZ1xKM391WBGSk0I83W+2/urP5myEwRjEXSlEbDvLqGudLeQ3+sqJGiqfYMYitPLcA2T8N5J20LdUeupAVUcR8p8mPMrC0YB275C7dfWOZVsuSDIU3upY+kbl9H4tRd078g5Rxr8QxqwShz1feGDtjcGXdeGm8hoAlGCZVuscR8z6sle6Gd061Te1QoW0pV2qxRv7FFYam2IBjlRnzHprUq123Vug2YMt1wg+zgEIyB2U9rnis/GtIfzy1BfKzduFl5tgJrmheuW+8BRpvLB/Y9fJ+veWylz2ijlu3MvqHo1K4VqlYsr54iV6xZz6CnNUniRFgyV8dnyMixqg+pMbNUMGpFoCTHr3sf3feob9MPM69SpyGeP39h8LjQJhjlpktuvgLTnzO4i94IWLlpl5580h9vw8QqFoWl2oJgdEuZB0XqTlDX2r4VPVR+nSELC4IxZ+kuSJOrGr59fo+148ri50+/fW6jx06K8m11qUiH1w1UfTP1zRTBmDpHZeQqq3sAtXlaHbx97rMndkDfg/LAomoXXQ/I0zsn4/JR86rOt2zaCPVqVYe0oxCx418roIDmEhKvy8MxadeVIH48nD57Dt169cf3H8YfzAfFHEsVL4o+3f9SFaal96utWJgSjAJdisVIQREJ4+y/uZPJBUT0NyxqpOiqSqk0s5cWDtLKQSx8OCcMrTAJCaInVDfyg7d2NTi+JhilkqoIOUNN7aVCqlRKvffqFvpt8hnHrr+OJ+8eosc6nbD0OcdomFhjgcp/W3FqPrZ7Gi83bw3BKOG5M+uuVK0tlhyfjX8vB10Ygu+1SqGYYRWnquqjD9/cU2G65j4N0q6LwPC0hmCU3FXfPTX11/tn6hJo8v9CRv71xZRzMrlnR5fiA9TpUrlX2qsEl0lBkuULZ0OKakgo3chxE41+6UqfOhFW8gOjb6FRME4YNQw5smXB7n0HMHCY4T6ZvhmPGjIA+fLkUlUWK9dq4OcHNE7sWJg+aZwKnQvKPozBtfemvI/cUMiNhfR6rFSzfqBuKuQ7Z/e2DeqJcHA1hJc1SksNaa0hNmDYKOzZZ/hm1hgPqcA3d5qu/ZI8wf53j9+85HYtm6Fmtcrq2qlRrwm+fP1qFK949HdtWafajEj7B1PaRshgNapWgvTGlDYY1es1MZh3OHfaJKROlRJHj59E976GRaX6zvl/H0b579CQw9ivR1eUKFYYS1asVrmX5pqETwsbZ+dI2PrPvxg7SRcqGtQWKXJMVGy/Gk4RI6vQRCl+8suAwJB5OEWMAumZJ5Uz9S20CUbxmNbqtVd5z05sHY1rpwJugSPHVum8UeX+3b+yH9JqwrfFT5YD4r1zDOcU6D6MpuyrpSGprgnSoEwL3TV4aN0A3LngN9c6e4kOSJe3tmq5sWFSFT99EDXBKA8SNk6uDsnB9G1SIVUqpb5+cg1bZ/rNf5NrRXJCpW+kIVOtTNrrCmEd3TgUN8/67RdtjJN8F8vDOwlhX7x8JWbNC1sFW6QHorQEkd64N2/dRtu/epjdLsmUayigYxrUqYnmjRuoqAiJjrAVC3OC0T1GYtXQ3tHBUXkYJT9Qa1AvmyLVSaU4zuN3D7Dl/BqD+ySFZKSgzMM399F/U0cfYYEivqSPowMcsOncSqw9o+sTp2+aYJS/ifdvwu7BePz2oTpEzqudswlKZqio/j3n0CQcvOG3EEES1+QYXEFXKEH6SS44+re3OJVcShFAMhepsCnC4ps/JZOtIRhlHloFUOkZOXRbDx/vKWGUIn6DyvQrnXo+OoPZBydC2pZoJu9fJWsdFb6785JfMWsNnoEVjNGdY6ow5MdvH6iwZt+5qVJdtUuxAXCNHBvP3z9B17W66n/GTB5oTKg+HyKo91zdjkVHZ8Dr/5m78jd5sGEs/9Ua+6RfoVDyGMdMmILrN2+pG1MxqfyYO2cOtGjSEM9fvECbTt18lKwOjYJRu4GXJ461GjTzvrmWJt/yI/Px0yc/6HJlz4ZxI3Vf+tL+YfiYCd4MRCxK0/RkSZOo1+1FMEo1OOlPKZXg/AvVNeU61O/HWbFG3WCrfik/frOmTkDa1KlUH0gJS5XG9pqJZ6pCmdIoXqQQ/urVV1Vx9W0jBvVDgXx5lHAWISZPlDUTQdqrayfFyNQ8SU3YidezaZuOkB6PYiIiZb7fvn3zMweZ56pF8yCh5NLiQ7yMWk9Iua47tG2pPKFizdt2UscYs9AmGNs0b4LaNaoqz6x4aM0xEeCStyk9VDVr2LwNbt0xXDPAnLFNOVa/n57kMR7bPAqvn17zbvcguWbigctatLUq3LJjXksfOX6hTTDKmkUwiXB68+wmts1s5C1awoVzUr0WtWI0+nyyFG0NjwINVFX741tH+6j6GTdxFhSuOw5OEVzUKef3z8X5fbraD/qm398wpHIYZT5/1hqFRGkKQvoo7l3eBS8fXvKeZrKMJZG3Yl84hgtvtOekftVYKd4jIafe+ZgODlCCM48uRNOQ2BPRXrj2WESJ6YbTOybj4Y2jProFRHKJgfxVByFBcl2V9nUTKuHTO9PblBXMnxfDBvZVD+xrNmiKx09MP9eUz0RQHiMFwKR1kBRRk1BQ6RH8/MXLoHxLo2N36dgWlcqVUQ/9gqP3a3AtMswJRgFTMFVxVWVUGraLkBLPy4ev79UNtAhGWZQILfH+ff7m8wawYKpiaJq/g/pADNveA9ef+c2/aZinNYqkLa1yB4ds7Y5bL3w2TtUEo4SuSi6ac4TIePruEZ6+f4KksVIgWqToav9O3jms+vkZyz0s41EF1bM3UOJXRO+tF9cRMXxESH/ISE7Oak1/7xuFS4/PG7we5HxpHyLewbhR46tjRKxoeXFjdvY36P00dnGljZ8RPUsNVaJX5nNbwiW9vBA/ursaX9YiPQqDyqQCboXMNRUPYS9MJZ/RPUYiRI6oqwImQksq2X776ffGKbA8AysYpbCNtH0RL6OYXIP3X93Bp28fECdqfHVtiH3+/gnj/h1o8NrzzVa/7Ys8nHj09r66NhLGSAxnJxf0XN/G7L6V5uyflIfu1qkdxIsoJjes9+4/hAglqWqpmaEmtdYQjPIDppXV195LhKrchEsT7/d6N/HHTpzEuMnT/F2eu1sCzJ8xRYlDCbWRm+fv378jdcqUOHfB06D3Rb5PenbpiDIli+s+Y0+eqp5OLi4uyJktK54+ewbPS5fV6/YiGIVDiyYNVAU6Ccls2KKNxT/OWusSeRBRuFQF/PLyMucSDdSxUi11cP/eSP5/wS9ruX33LqJHj45E7m4qj1fMmMcvfrx4GDWkv8r7ketJxMijx0+QIllS1SpETHJopIqqIbHne/JF/vwDg/rqvDAiYi9evopo0aKq+c2at1AVbzBk4jWX8+RmSdrhXL1+U30+RAyLkBS2Uu1w5RrDXiERZSWLFoZU4pXPiJg0u/7xXRd291fPvsEm5PXXp3lPLflcyXfE+hWLIAWONGvRrjMuX/X5ex6oCyiAk5N6FEfust3hFCmKOlIElfRndIkaR3ndNHvxwBMH1/T1keNnDcGYtVhbVQjF2xwcEDl6PPVP8YJJOwbNzu2bhVvntvu7oiQZiuKParo+zz++fcbzB56I6BIdUrHz7J4ZuHTE7wN26f1YtP5EuCZIq84Tz5k0o48S0x3xkmRVfQado7iq/odBKRj/qD4M0WIlVu8VKbKr8vi+faF7eCCCXcRbQCbFbArVHoMYcVPg16+fePvsJt6/foSY8VIgqmsidfodz3+V2DMknjXBKK/9+vFNXRfSS/H9q4dKiItnWuzepT04tHaAHy+ivEfhOmPVOrQ9eP3sBj69fYpIUWIhtnsG5QEWO7l9PK6e0HkaTTH5PZeKy/IAb836TaoAWVgyLZRWHuxJRfM7dy0vjBTYdWtRSXMXLlG567ZiYVIwCnzx1kh1TQn7FOGomQiMA9f/xdYLa1XlU32Tm/ahFSZDKlfuurxVVao0ZHIjPrzSVOUJkhDHfhs7+hAo+jmMQ7Z2Q4s/OitvoAgtMZnDoRu7VfuEgEIr0yfIjLq5msEtRiIllMREDF17egnzj0z1t8VHnVzNUDJ9BaPXoiWFgaSwUL3cLZT41jcRzZvOrcKZ+0HblytlnLSok6spxGMoIcKavf38GnuubMe2i+v99bYGhmdgBaPMVR4WVM1WDxkSZEbsqPG8rwm1rz++4uTdw9jmud5kz6BcE5IPWyVbXVXFVzMR1GfuH8e6M8tMHsvSLy0JT2nToikypEvr42n916/fcOfePVXKf92GzX5u9K0hGPXDBgOa/74Dh9BviK5JtH8mlU+7dGgLyS/TTD6n0p+pc/feRgWLVHSrUrGc6h8oJt6fU/+dxdBRY5E/bx7lTbLkxjag+YbW10VMTR47EtIU/vjJ0+jau79FU9U8uNJXTzyMwW2SO9iicQMULfyn8pprJl7oC56XVCjkpSuGWxrJsRKOLV68PwvkU4JNM3mwsGbDJqxaa7yAmqG1ypPp5k0a+BhLHmqsWrcRM+b4bASuf76I1x5/dYAUJRKvo5gIxdt37mLKjDk4fcZ48Qut96ox9v7lPQblfmmff/G4NmzR1uy3knBguZGUcOeQCg+TqpfZSrRHnIQecIkW13sNItbevritRNrVE2vg5aWL3NDMGoIxT4XeSJnVcIN43zClf+HVk7r+f/6Z5NhlLtIKEZ1/PzAUAXTl+Eqc2WX4gV34CM7IW6E33FPnR3gnZzW8hGXe/G8zTv87GXkr9FWFWoJSMJZtuRAx4xsuGiZtOTaa2GJDQkJzlOqMROkK+WDw4c1jXD2+CpePrTCKTz+HccfcFshXqT/iJs6svLNiXz+9USGkwtH39aANKqG7EvaaLGMJJRzl397m5YXHt0/iyvFVql+kOTakXy8UKlhAVUVv3aFLsOf9mTNXY8fWrVlNFWGTh78hadMnjYVH+nRmpRaE5HxNfe8wKxi9PzwOjkrcSF7i47f3zfKomQrJ93GGit44R3BB4pjJ8O7LG+/wVHPGl3YLcv63n19VHp8xr6Q5Ywbm2BgurkgQzV3N59n7pz7CfgMzrqnnaiGXUSJGUzz0w45NGSM08BTPrzwIkAcQrz+9xMsPzwx6Rk1ZjwjHOFHjKQ+6eC6lxYrk0Aa3iViS0I8XL1/hwcNH3qGZwT2PwL6fhOolSBBfFW6RJ5Jycy9hhaaYnBM7Vixcu37D35w0U8YK68eIp3n+jKnK2yzeq6kz/YaTBbRGrSeiiJvSlWuoQkshZbIO8ea9ffsO9x489A4JNXU+UmhB/v/m7TuBqlIrIaiJErojtqsrXr5+rbyW4nE0xaRCoDwMkfzj6zduhulrVCooNmtUH/4V9AmIiXgYxUt77/6DgA4N8tfFgxQ9TnJ8fv8c718/8A5PDfI3tvIbSAhqVPHWRY2NLx9eqj6I4nEMyCSkUrxzDg6OeP30ephdv7bOKDHcEDlGAhWiK2IvIDNU9EZyWKVvo+QzmtsuRFpqiGiUBxFfPrxSfSi/fXkf0DT8vN60YT3IA1FJyWjaugMePnps9hg84TcBKboj0VnLVq7BdH8e8oU1ZmFeMIYEcFOqpIbEvPieJEACJBDcBMTzPHrYQOURW7FmncrXM8dEHK1bvlCFDkposxQ4kYIFL1+9NimM05z34rGhn4CIdnkgkydndsiNrFwf8xYtxfzFur6ZNBIIqwRMqZIa3Gtr0qAuGtevox7U9ew/SEXa0AJHQCIbpF6CRCFJu6PDR4+rh+xabnngRg+5sykYLWBPwWgBNJ5CAiRgswTE6zx+5DAV0jl+yjSs32R6ZT6BInmMk8YM986Vlb9JcaHtO3fZLDMuzDABrU2I9ur+Q0fQf8iIMBvNwH0mAY1AaBOMJYsVQd8eXVR0Tdde/VU4Ki3wBERYSVsN4avZk6fPUL1e48APHoIjUDBaAJ+C0QJoPIUESMCmCUgOXdsWTTBy/GSLSplLIaJCf+RHjqxZEFMKL2zYhCPHgjZn2qY3JIwuTlppuLg4qzDcXfv2+6g8G0aXxGmTgCIQ2gSjFLmSgm5SnOX+A12lf5r1CKRKmQLFC/+pCqBJykXfwcOtN3gIjETBaAF0CkYLoPEUEiABEiABEiABErBTAqFNMNrpNnDZFhKgYLQAnFStLJq2DO69uo2ZB8dbMAJPIQESIAESIAESIAESsBcCUmE2dc6qeP3kOg6vH2Qvy+Y6bYQABaONbCSXQQIkQAIkQAIkQAIkQAIkQALWJkDBaG2iHI8ESIAESIAESIAESIAESIAEbIQABaONbCSXQQIkQAIkQAIkQAIkQAIkQALWJkDBaG2iHI8ESIAESIAESIAESIAESIAEbIQABaONbCSXQQIkQAIkQAIkQAIkQAIkQALWJkDBaG2iHI8ESIAESIAESIAESIAESIAEbIQABaONbCSXQQIkQAIkQAIkQAIkQAIkQALWJkDBaG2iHI8ESIAESIAESIAESIAESIAEbIQABaONbCSXQQIkQAIkQAIkQAIkQAIkQALWJkDBaG2iHI8ESIAESIAESIAESIAESIAEbIQABaONbCSXQQIkQAIkQAIkQAIkQAIkQALWJkDBaG2iHI8ESIAESIAESIAESIAESIAEbIQABaONbCSXQQIkQAIkQAIkQAIkQAIkQALWJkDBaG2iHI8ESIAESIAESIAESIAESIAEbIQABaONbCSXQQIkQAIkQAIkQAIkQAIkQALWJkDBaG2iHI8ESIAESIAESIAESIAESIAEbIQABaONbCSXQQIkQAIkQAIkQAIkQAIkQALWJkDBaG2iHI8ESIAESIAESIAESIAESIAEbIQABaONbCSXQQIkQAIkQAIkQAIkQAIkQALWJkDBaG2iHI8ESIAESIAESIAESIAESIAEbIQABaONbCSXQQIkQAIkQAIkQAIkQAIkQALWJkDBaG2iHI8ESIAESIAESIAESIAESIAEbIQABaONbCSXQQIkQAIkQAIkQAIkQAIkQALWJkDBaG2iHI8ESIAESIAESIAE7NjetQAAA+VJREFUSIAESIAEbIQABaONbCSXQQIkQAIkQAIkQAIkQAIkQALWJkDBaG2iHI8ESIAESIAESIAESIAESIAEbIQABaONbCSXQQIkQAIkQAIkQAIkQAIkQALWJkDBaG2iHI8ESIAESIAESIAESIAESIAEbIQABaONbCSXQQIkQAIkQAIkQAIkQAIkQALWJkDBaG2iHI8ESIAESIAESIAESIAESIAEbIQABaONbCSXQQIkQAIkQAIkQAIkQAIkQALWJkDBaG2iHI8ESIAESIAESIAESIAESIAEbIQABaONbCSXQQIkQAIkQAIkQAIkQAIkQALWJkDBaG2iHI8ESIAESIAESIAESIAESIAEbIQABaONbCSXQQIkQAIkQAIkQAIkQAIkQALWJkDBaG2iHI8ESIAESIAESIAESIAESIAEbIQABaONbCSXQQIkQAIkQAIkQAIkQAIkQALWJkDBaG2iHI8ESIAESIAESIAESIAESIAEbIQABaONbCSXQQIkQAIkQAIkQAIkQAIkQALWJkDBaG2iHI8ESIAESIAESIAESIAESIAEbIQABaONbCSXQQIkQAIkQAIkQAIkQAIkQALWJkDBaG2iHI8ESIAESIAESIAESIAESIAEbIQABaONbCSXQQIkQAIkQAIkQAIkQAIkQALWJkDBaG2iHI8ESIAESIAESIAESIAESIAEbISAQcH485eXl6PD7xV65CmI79+/28iSuQwSIAESIAESIAESIAESIAESIAFTCERwcsKFYwe8D/35C3B49u6HV5yo4bz/WLVeY3hevmLKeDyGBEiABEiABEiABEiABEiABEjARgh4pE+HtYvnea/m2fsfcDh8/ZNXvpTO3n+cu2gpRk+aaiNL5jJIgARIgARIgARIgARIgARIgARMIdC9Uzs0rV/X+9DDNz7BYfzOl16di7v6OJ9eRlNw8hgSIAESIAESIAESIAESIAESsA0Cvr2LsqrxO1/BoczEe14LmrhBPyz13oOH6NyzL0NTbWPvuQoSIAESIAESIAESIAESIAESMErAI31aTBw5FInc3b2PkXDUxvMe6wRjsfSR4dvLKEdKeOq2nbtw9cZNFsLhBUYCJEACJEACJEACJEACJEACNkLAyckJaVKmQJkSxdC0we8wVG154l3cffmjTjDKH1sVionymaPYyPK5DBIgARIgARIgARIgARIgARIgAUsIbD73ATP2vVanegtGikZLUPIcEiABEiABEiABEiABEiABErAdAvpi0Y9glD9IeGq9PNF95DTazvK5EhIgARIgARIgARIgARIgARIgAd8Enr3/iaVH32LX5Y8+XvofT/LXRoHMBZ8AAAAASUVORK5CYII=;" vertex="1" parent="IWIS4pKZPW2UH24JdNOo-1">
          <mxGeometry x="530" y="340" width="528" height="80.25" as="geometry" />
        </mxCell>
        <mxCell id="IWIS4pKZPW2UH24JdNOo-4" value="Helps Typescript understand that Child is a function that will receive an argument of type &#39;ChildProps&#39;" style="text;html=1;strokeColor=none;fillColor=none;align=center;verticalAlign=middle;whiteSpace=wrap;rounded=0;fontSize=13;fontStyle=2" vertex="1" parent="IWIS4pKZPW2UH24JdNOo-1">
          <mxGeometry x="659" y="430" width="270" height="50" as="geometry" />
        </mxCell>
        <mxCell id="IWIS4pKZPW2UH24JdNOo-6" value="Downside: Typescript &lt;i&gt;doesn&#39;t understand&lt;/i&gt;&amp;nbsp;that we are defining a React Component!" style="rounded=0;whiteSpace=wrap;html=1;strokeWidth=1;fontSize=13;fillColor=#f8cecc;strokeColor=#b85450;" vertex="1" parent="IWIS4pKZPW2UH24JdNOo-1">
          <mxGeometry x="633.5" y="510" width="321" height="60" as="geometry" />
        </mxCell>
      </root>
    </mxGraphModel>
  </diagram>
  <diagram id="Th3oThz8Y_VGjGhhTofA" name="09 - fc">
    <mxGraphModel dx="501" dy="309" grid="1" gridSize="10" guides="1" tooltips="1" connect="1" arrows="1" fold="1" page="1" pageScale="1" pageWidth="1920" pageHeight="1200" math="0" shadow="0">
      <root>
        <mxCell id="nGJk_-G_mGM2SEux7V_Z-0" />
        <mxCell id="nGJk_-G_mGM2SEux7V_Z-1" parent="nGJk_-G_mGM2SEux7V_Z-0" />
        <mxCell id="nGJk_-G_mGM2SEux7V_Z-2" value="All React Components can optionally provide these properties" style="rounded=0;whiteSpace=wrap;html=1;strokeWidth=1;fontSize=13;fillColor=#dae8fc;strokeColor=#6c8ebf;fontStyle=1" vertex="1" parent="nGJk_-G_mGM2SEux7V_Z-1">
          <mxGeometry x="560" y="330" width="250" height="50" as="geometry" />
        </mxCell>
        <mxCell id="nGJk_-G_mGM2SEux7V_Z-3" value="propTypes" style="rounded=0;whiteSpace=wrap;html=1;strokeWidth=1;fontSize=13;fontStyle=2;fillColor=#f5f5f5;strokeColor=#666666;fontColor=#333333;" vertex="1" parent="nGJk_-G_mGM2SEux7V_Z-1">
          <mxGeometry x="560" y="390" width="120" height="60" as="geometry" />
        </mxCell>
        <mxCell id="nGJk_-G_mGM2SEux7V_Z-4" value="displayName" style="rounded=0;whiteSpace=wrap;html=1;strokeWidth=1;fontSize=13;fontStyle=2;fillColor=#f5f5f5;strokeColor=#666666;fontColor=#333333;" vertex="1" parent="nGJk_-G_mGM2SEux7V_Z-1">
          <mxGeometry x="690" y="390" width="120" height="60" as="geometry" />
        </mxCell>
        <mxCell id="nGJk_-G_mGM2SEux7V_Z-5" value="defaultProps" style="rounded=0;whiteSpace=wrap;html=1;strokeWidth=1;fontSize=13;fontStyle=2;fillColor=#f5f5f5;strokeColor=#666666;fontColor=#333333;" vertex="1" parent="nGJk_-G_mGM2SEux7V_Z-1">
          <mxGeometry x="560" y="460" width="120" height="60" as="geometry" />
        </mxCell>
        <mxCell id="nGJk_-G_mGM2SEux7V_Z-6" value="contextTypes" style="rounded=0;whiteSpace=wrap;html=1;strokeWidth=1;fontSize=13;fontStyle=2;fillColor=#f5f5f5;strokeColor=#666666;fontColor=#333333;" vertex="1" parent="nGJk_-G_mGM2SEux7V_Z-1">
          <mxGeometry x="690" y="460" width="120" height="60" as="geometry" />
        </mxCell>
        <mxCell id="nGJk_-G_mGM2SEux7V_Z-7" value="Typescript doesn&#39;t know that we&#39;re making a React component, so it thinks that &#39;Child&#39; will not have these properties!" style="rounded=0;whiteSpace=wrap;html=1;strokeWidth=1;fontSize=11;fillColor=#f8cecc;strokeColor=#b85450;" vertex="1" parent="nGJk_-G_mGM2SEux7V_Z-1">
          <mxGeometry x="850" y="416.25" width="170" height="77.5" as="geometry" />
        </mxCell>
        <mxCell id="nGJk_-G_mGM2SEux7V_Z-8" value="" style="shape=curlyBracket;whiteSpace=wrap;html=1;rounded=1;strokeWidth=1;fontSize=13;rotation=-180;" vertex="1" parent="nGJk_-G_mGM2SEux7V_Z-1">
          <mxGeometry x="820" y="390" width="30" height="130" as="geometry" />
        </mxCell>
      </root>
    </mxGraphModel>
  </diagram>
  <diagram id="-zFeNOApiSxo7noc0hRn" name="10 - fc">
    <mxGraphModel dx="501" dy="309" grid="1" gridSize="10" guides="1" tooltips="1" connect="1" arrows="1" fold="1" page="1" pageScale="1" pageWidth="1920" pageHeight="1200" math="0" shadow="0">
      <root>
        <mxCell id="pY5X2Zp6xEJPj-edMGkJ-0" />
        <mxCell id="pY5X2Zp6xEJPj-edMGkJ-1" parent="pY5X2Zp6xEJPj-edMGkJ-0" />
        <mxCell id="pY5X2Zp6xEJPj-edMGkJ-2" value="" style="shape=image;verticalLabelPosition=bottom;labelBackgroundColor=#ffffff;verticalAlign=top;aspect=fixed;imageAspect=0;image=data:image/png,iVBORw0KGgoAAAANSUhEUgAABDQAAACKCAYAAABVYRpsAAAgAElEQVR4Xu2dBXQUyRaG/wRC0OCW4O7uvri76+LussAiD13c3d1dF3d3d3cLJEiC5p1bsx0mycxkZiJkmP++885ZMt3V1V9Vz3T9dcUBNBIgARIgARIgARIgARIgARIgARIgARKwMQIO5Sc89DHU55IZoiBP8khIEz8CYkcJB0dHG7szdpcESIAESIAESIAESIAESIAESIAESMDmCPz4Abz5+B03X3zByXte2H31o8F7CCBoiJDRMF90xI0WzuZumh0mARIgARIgARIgARIgARIgARIgARL4vQi8fP8dS495YPc1v8KGH0GjTbGYqJQ16u9157wbEiABEiABEiABEiABEiABEiABEiABmyew+cIHzNj/1vc+fAUNihk2P7a8ARIgARIgARIgARIgARIgARIgARL4rQlsOv8BMw/oRA0laEiYSddSsQLc9NxFS7Ft127cuHUHX79+/a2h8OZIgARIgARIgARIgARIgARIgARIgAR+PQEnJyekTZ0S5UuVRPPGDQJ0aNxOd+y59lEnaMxv5op4ejkzHj1+gi59+uHy1eu//k7YAxIgARIgARIgARIgARIgARIgARIgAbskkClDOkwYMRSJ3dx87/+l5zc0nf8MDuN2vvHx751Ro2FTXL5GMcMuZwtvmgRIgARIgARIgARIgARIgARIgATCEIFMGdJj7eJ5fnokXhoOh2998imYKpLvBxJmMmrilDDUdXaFBEiABEiABEiABEiABEiABEiABEjAngn06tIBzRv9DD85cvsTHF56fvPRL9FK7wx7niK8dxIgARIgARIgARIgARIgARIgARIIewT8e2lI2InD9+8+Po6OPzubKV8RJgANe2PHHpEACZAACZAACZAACZAACZAACZCA3RKQRKGXjx/0vf/vPwAHHx8fH30iaXPmt1tAvHESIAESIAESIAESIAESIAESIAESIIGwSeDGmWO+HRMhg4JG2Bwn9ooESIAESIAESIAESIAESIAESIAESECPAAUNTgcSIAESIAESIAESIAESIAESIAESIAGbI0BBw+aGjB0mARIgARIgARIgARIgARIgARIgARKgoME5QAIkQAIkQAIkQAIkQAIkQAIkQAIkYHMEKGjY3JCxwyRAAiRAAiRAAiRAAiRAAiRAAiRAAhQ0OAdIgARIgARIgARIgARIgARIgARIgARsjgAFDZsbMnaYBEiABEiABEiABEiABEiABEiABEiAggbnAAmQAAmQAAmQAAmQAAmQAAmQAAmQgM0RoKBhc0PGDpMACZAACZAACZAACZAACZAACZAACVDQ4BwgARIgARIgARIgARIgARIgARIgARKwOQIUNGxuyNhhEiABEiABEiABEiABEiABEiABEiABChqcAyRAAiRAAiRAAiRAAiRAAiRAAiRAAjZHgIKGzQ0ZO0wCJEACJEACJEACJEACJEACJEACJEBBg3OABEiABEiABEiABEiABEiABEiABEjA5ghQ0LC5IWOHSYAESIAESIAESIAESIAESIAESIAEKGhwDpAACZAACZAACZAACZAACZAACZAACdgcAQoaNjdk7DAJkAAJkAAJkAAJkAAJkAAJkAAJkAAFDc4BEiABEiABEiABEiABEiABEiABEiABmyNAQcPmhowdJgESIAESIAESIAESIAESIAESIAESoKDBOUACJEACJEACJEACJEACJEACJEACJGBzBCho2NyQscMkQAIkQAIkQAIkQAIkQAIkQAIkQAIUNDgHSIAESIAESIAESIAESIAESIAESIAEbI4ABQ2bGzJ2mARIgARIgARIgARIgARIgARIgARIgIIG5wAJkAAJkAAJkAAJkAAJkAAJkAAJkIDNEaCgYXNDxg6TAAmQAAmQAAmQAAmQAAmQAAmQAAlQ0OAcIAESIAESIAESIAESIAESIAESIAESsDkCFDRsbsjYYRIgARIgARIgARIgARIgARIgARIgAQoanAMkQAIkQAIkQAIkQAIkQAIkQAIkQAI2R4CChs0NGTtMAiRAAiRAAiRAAiRAAiRAAiRAAiRAQYNzgARIgARIgARIgARIgARIgARIgARIwOYIUNCwuSFjh0mABEiABEiABEiABEiABEiABEiABChocA6QAAmQAAmQAAmQAAmQAAmQAAmQAAnYHAEKGjY3ZOwwCZAACZAACZAACZAACZAACZAACZAABQ3OARIgARIgARIgARIgARIgARIgARIgAZsjQEHD5oaMHSYBEiABEiABEiABEiABEiABEiABEqCgwTlAAiRAAiRAAiRAAiRAAiRAAiRAAiRgcwQoaNjckLHDJEACJEACJEACJEACJEACJEACJEACFDQ4B0iABEiABEiABEiABEiABEiABEiABGyOAAUNmxsydpgESIAESIAESIAESIAESIAESIAESICCBucACZAACZAACZAACZAACZAACZAACZCAzRGgoGFzQ8YOkwAJkAAJkAAJkAAJkAAJkAAJkAAJUNDgHCABEiABEiABEiABEiABEiABEiABErA5AhQ0bG7I2GESIAESIAESIAESIAESIAESIAESIAEKGpwDJEACJEACJEACJEACJGDHBJImSYxPXl549eq1VRQcHByQOlUKxIsTB+8/fMCFS1esaocn2S6BhAniI12a1HB/+w43bt2Gt7e3VTfj6OiIbFky4+z5C1adz5MCJ5DI1RVubgkR0dkZBw4fDfyEMH4EBY0wPkDsHgmQAAmQAAmQAAmQAAmEFIH0adNg9PBBeOfhiWZtOuLLly8WXapWtSqoXaMqEsSPp87bvnMPho8eZ1EbPNj2CRQtXBBDB/RVN+Ll5YW9Bw5hwtSZFgsbXTq0QfXKFTF5+mysXr/R9sGEoTvInTM7WjZtDHnmxZ6/eIlaDZuGoR5a1xUKGtZx41kkQAKhTCBPrhzIlSM79uw7oJR/GgmQAAkYI+DgGA4ps1VAFJf4uHVmAz69f0VYJEACBgjkzJ4N/wzqh0iRImHKzDlYuWa9RZxEyOjYpqU65/rNW7h46QrOXbyEw0ePW9QOD7Z9AkkTJ0LZ0iWRIllSyMLZyckJp86cQ4++A/Djxw+zb1AW2+NGDEXUqFGwcOkKzFmw2OxzeaBxApkypseEkcPh7BxBCRknTp3Bw0ePsGqd7YtGFDQ480mABIKdwNCBfyORa0IsW7UWO/fsC3L7sWPFwtplCxAuXDjlylijfhN8+/bNaLsZ06dDw3q1DX5+5NgJbNm+I8h90hro1K4V8uTKieMnTqmXQRoJkIBlBKLGdEO+Sr0R2SUu9i3tjvdvn1jWgIGjk2QojiK1hqlPHl0/gAMre5tsM1fZrogaI6HBYw6vG4hvX7yC3CetgbIt5iJcuPC4emw57l38N9jaZUMkYCmBrJkzYfyoYXAKHx6TZ8zGqrUbLG0CyxfMRiI3V7taeIr4M6BPT4Osnj1/jknTZlnM8Xc7Qd7Dpk8cAwlFatCsNR4+emzRLeqLGouWrcTs+YssOp8HByTQq2tHVCpfFmfOnUfPvgPx1cR7tK3xo6BhayPG/pJAKBMIHz48kidLirSpUyFZksR4/cYdDx8/xt17D/D8xQuDvdm5aY3a7Rk9YTI2bQ36C3uc2CJoLITEVb599w416jUx+UVcpGB+DPtfP4N9W7N+EyZOmxlsFLUfiPMXL6Fjd9OLpmC7qIUNhXeKiPjJcgQ4y/vTO3zyfAnvD+7w8TF/98TCy/NwIwQix4yGGG5xzeLj4+ODZ1fumTzWMZwjorvGRayk8RE9YWx4vfsAzxfuePfkNT6+8TDrOsFxUPgIkRArQVrEdk2HyC7x8N79MTzfPMDb57fx2StgP2IlTIfyrearS2+aUgeebx4GuRtJM5ZA4ZpDVTuPrh/EgZV/mWyzQpvFiBk/lcFjVo0sjS/e74PcJ62BKh1XIVqsxLh4YC4u7g8ogspnLrET+7nej+/flJfJR4/nwSquBNtNsSGbIxAjenTMnzkF8vs6b9FSzF+8zOJ7kN/kPVvXQ94TmrRqj7v37lvchi2eEC1qVGxbv9Jg1+/cvYc/W3ewxdsK9j6vXjJfhSH1+nsgjp08bXH7IopMGTdSbWb1/Hug8iigWU9g4uh/kCNbFkyYOgNrN2y2vqEweCYFjTA4KKHdJUcHRySI7obYUeLi7utb+Pg5+F7cQvtefpfrOYePiAQurogRORYuPLb8RyC4OJQoVgQ9OndQbn+GbPe+A5gxZz5evPTrzh3cgoZcO3+eXMiVMzvkmteu3zR5i1GiREHC/2J5tQP79+6BFMmTwR4FjWixEqFKx9VGmf348R1Pbh7BtWPL8PKh/SThcnB0hEvspIgSPT7ePLmKz16ewfXomNVOyoKZkbdxObOOFUFiY1/jQlzS3OmRu35pRIjsbLC9B6eu4fy6A/joHnL3KGEeWf9ohYwFGkLY+rfvXz/j6rGluHJ4Cb59/enxEBKChqNjeKTKUQmRXeLj5un1+ORpWHzV+ugSOwnChf/JLm6SLMhTvof6OLQFjSzFWiBL0eZG54UIGzdOrsHNU+vw9fMHs+YPDyIBfQKyaz562CDkzZ0TV65dR7suPS0KCdDaEkFj3/aNarOhZfsuKuTEHkzuV8Iq9K1W9SooX6YUKGj8pLJx5RLEihUTvfr9D8dOnLJqavzZsB6aN2mIdx4eaNq6g9pUo1lHYNKYEcieNTOmzZqL5avXWddIGD2LgkYYHZjQ7FYCFzeMrD5dXXLg5m64/4b5CUKTv6FrFUtTBk0LtIf3V2+0Xmo4dCIk+yjeFV07tEG50iXVZSTW7ur1G7h3/wGiu7hAsqHnzJ5VvcTIj3eztp38vAyFhKAR1PudOXkcMqRLa/eCxssH5+H1UfdC4BQhEiJFjY3ocVPAMVx49bcrhxfh3B7d98HvbrKIrdxBt8u2bVZTuD+7Hqq3rC9oPL/+AD4/fIxe/93jlzi3dn+Az8M7R0CuuiWRokAm9dnHN554c+8p3j17DecokZSnRvy0SeHg6IB3j19h+7AFJq9jLQAJGylUYzDiuGVQTbg/v4m3z27gw7tniBI9AWIlTAMRLsRunlqLk9vG+F4qJAQNa+9DO881VT4UbzBe/fNXCRrfv33Bw6t7VR8cHBzhHCUmZM6KACcmXiM757XBu1d3g3q7PN/OCFQsVwZ/desE78+fVRLQR4+tD/MS78l4ceOgd//BOHL8hJ2R/Hm7bVo0RYM6NSlo/IdEJ3ZtgqOjgxIibt817WFobOKId4aErkgIyuFjJ9BnwGCbm2ORI0eCt5c3fvgY/40PjZvq/1cPlC75h8qT87uFSFPQCI0ZFMavQUEj7A3QrxY0tDCKHz98sGzVGsxduCRAzgrZnWjWuAFmzF2Ax0+e+oFIQSNszSl9D43dizri+T2/Xj+RosVBrjJdIG76YodW/40H/y2kwtadBG9vwpKgsarTBHz7bFllAaGRp2EZpCqcFRKScm3HCVzcdBg/vvsNH4rhGgeZKxXC+fUH8P7lW4shSmK3CmVLY9OWbQZfyMQzo2KbxYgeNzm+en/Aia2jcP/yrgDXSZSmEJJnKYOjG4bi+7fPFDSMhJxoHhpeH95g7diKfjiKsJE4XVHkr/I3nJyjqHCe7bOb4os3PTWMTWxZCEWI4MQyonqA5s2YjNQpU6icGZI7Iyg2Y9JYSGhAcIWYBqUvv/JcChp+6Uvusw0rdck8K9asBw8P670DJUxCwiXknbR2o6YBvIJ/5bgHdm0JuRk19H84f/Eyxk2eFtjhIfp56+Z/omHdWsrTedDwUSF6rdBu3OYFjXCO4fD9x/fQ5mbwekHpi4R9yAup/C84LbxjeHz7YTx5olwrrAoaYYVnUPoRPpwTvn3/avGQ/kpBQ15y5kybpFR1a+PsTAkaorZ//x76z2xweWj4778t5NAITNCQCRoufARUar9CJUZ8evsY9i7tZta8Fdf+H4F8x5hqSNz89Re3Zl3UwEGy0IMD4GNBJnVbFzRiJo6Hsn83UUnXTq/YjZv7zlqLz+h5uXJkQ/dO7VXSv8nTZxnMhp42Ty3kLtdN5WHZNvNPvH1hmdu5KQ8NCV2R30aE8s5WcHpoiODjo/eeElgODVOChjZQSTMUR+H/kp6e2j4ON04aDykzNriO4Zzww8LfJ//3Ys2EC+qYSh8gb0tmPOuS7FLyRCRJnAjbduzC9Nnz4OFp32G1IvDMmqLzPmrRrnOQq4YN6d8HxYoUsjoPhzVzyNQ5ks/DVNJwU+eKV4F6F7fi+yY4BY2g3IOx+5NnITSTQKZJnRJzp01SJYBLVKgWpGF2dHDAmmULETdObCxYslxtstmKSQUgqQQkNnPuAixZYfl3dXDdq5TC7dqxLc5duIROPcJmzjdr79UmBY1IESKjUuZaSB0vPZLFSaUWjPff3MHZhyew+9oWo6KALBILpCymWC05MQsP3QO6P2VyzY7KWXUu/mvPLsGNF1f8sM2bvDBKpCuPc49OYvvl9UiXIDOKpimFDAmyIIpzVNWPK0/PY9PFVYEKLdEiuqj7SBE3DZLGTonvP77hwZu7uPXymjr/i94Olv8BLpm+AvIkK+T759MPjmLnVV2Cl2yJc6Ni5ppIHDM5nJ2c4f7xNWYdGo/rzy/7Hl88bTnkS1FE/TtCuAhIHie1+u8H7nfhrRfbLH9bdnKOuq+QtgjhnVEuY1WkipsOyeOkQlRnF7x8/xxPPR5h7/XtuPjEdDKgoPDsXup/cA7vjEl7h+PD5/conKoEsiXOgzTxMyBKhKiqH3tvbMMumV8mfuhEmMqTrCD+SFsOrjESwyVidHh9/YTnHk/VfRy6tRvXnl8yiPLP/O3UOWIxIsVEfBdXda2bL6/6OV4WDaN2Dgh0flk7XlPGjkTWLJnw5OkzNGzexqoXA/+CRpmSxVG0UAFkzpQBkkxL2t6weRvWbthk1AWvdIk/ULl8WYO3MXXWXFy7YTqPhv8TgyJouCZMoFTtLJkzIbGbG548fYpLV65ixpwFaNm0kcoabUlS0MSJ3OD5/n2QdiwsGV9zBA1pT0IGkmUqBe+P7lgzpoLRS7ilLoAUWcshtltG5f7u+foh3jy7hksH5uO9+yOj54l4kShtIbimzIu4SbKqqhbhnSLh6+ePaqf5wZU9uH5iJcTV3hwT8SVdvjoqlEFCGhwcwqmEkm+f38SVw4vh8Tpggro0uaohWabSqvlwTs6I7Zpe/beESHz7/MnPZU/vmAD3ZzfM6YpVx+iHnFjjoVGyRz3ES50YH169w5aBcwJ4ZljVqf9OihUzBjq0aYlSxXW/mR6enipzv/+qRc6Roqv8LBEiRcPdi9txdL3l7sD+BY2P754hQ8GGSJA8p5pj6vqv7uH8nhl4dvek0dvKUaoD4vx3vP+DxDPJEuEtqIKG9D11zmqIlzQrhNG7l3fw5OZRXDo4H5XaLzOZFNQcQUMEvDp99kAS/t45vxXHNuoSoIrJM1W8wTg/CPYt76Ges4iRYyBT4T+ROH0xRHGJh29fvZWAeXD13wa5iniQPl9dJEiRG7ETpoOTc2S8e3kXb55eU8/Yh3d+vfP0G8leoi3iJs6CSwfn4dndU0iVvZK6bryk2SBJTt88uYL7l3apeROYSTvp89dFbNcMiBwtLnx8vqvvDI/XD1T+H2lDXzTS2pP8T107tIX8nqh55OEJ+f3YvnN3YJf8bT/v1a0TKpUro8JM6jdtFeT77Ni2JWpXr4qNW7ZjzMQpQW7P0gYiOjujbq3qykskXdrUcInmgqfPn+H+g0fYuHkbjp8ynYcsenQXNK5XR4Wkpk6VEt++f8Ot23fUb/yipStVWI45FlRBo2jhgpC8ZenSpFaJNMXzVUrUb962A2fPG89tFTFiRIwZNshPF//qPwgfP32CJH5tVL82ihYqqMKCvL29VWLN/kP+MeeWgnRM/ry5lWeCvO/VbdIiSG3JyR1at0CdmtXw6vUb1Gzwp1U5X4LcCSsaEJFs6IC+KFwwvzp76Mix2LFbF0oY2laoQD78M6i/qjgjlWd+J7M5QcMtRhJ0Lt5XLfbEZLEoXghO4SKof0sCxZkHx+Hjl4DulxGdImFYlcmIEzUe7ry6gSHbevlZnMqC+p+qU9Xn0s643QFfzGTBXTd3M5x5eBwiIrQo2AmODuHwzssdMSLFUjtlYiJ4TN0/Cl+/G34xTxY7FToV76MScYpJroRwjo6+9/H47QNM2vcPXngaflmon6cFymSo7DsXRcyZuHcYqmati2rZ6weYoyP+/dvPQrp2rj9RIVN1s+Zy19XNlCgSkibj2r7YX3D7b0Ev1xKhSjwcNJMxESaGPB6CynNmg1WI6BQRQ7f1Qqn0lSDC1ZfvX/D24xs1H8RLQ2zDhRVYf85wJnA5pmuJ/sjspqsmIWPv4fVOCTPStmaXn57D2F2D8MNfVYmBFccgRZw0gWJ+9f45eqwN+kuIoQslcnXF8oU699MRYydi6787A+2PoQM0QUM8PFKmSK5enuSlwNPzvfpR1cyU0i4CgrjHGbLuvfvj5BnLdqOtFTSkusuoYYMgCzyxT590yQwlJlKSU7189Uq9CJkraGi7WbJTImXIlq9aaxVjS04yV9DIV6kPUuWorBY5K/4pHmBXXBZRkvQxU6HGEtSvPpeqFc6RdWy+fvmEYxuG4uE1w6V6ZaFVs+dWteASE+FCruUcycX3dkQQ2TarWaDJDjW3+wgRo6lzJbGpg/zvv2SU8u8rhxbiwn6/7tTZS7ZHxoINzcK3bnzVQJNJmtWQkYOCImhEixcTlYa0VC2fWLQdd44YFkot7Z/shFWuWB5tmjeBJNcVUXXrv7swY47hnW2ZLzJvxDZMqokPVpRc1Rc0di1sj+wl2iFOooz4/OmdZI+Ac+Tovrexe1EHPL9nWNwu3nCCEssM2bKhRSzyRgiKoJEyW0XkrdQbjv/9bnh/fIcIEaOqPDWvHl1C1JiuKneNsSon5ggaco8VWi9EzARplLiwfXYz39t2co6KOr39hvxsndkYnz95okzTGYgSI4EfRJJXZ+eCtgGwifhRuNZQxE+WU/eMff+G71+94RQxqvr3F6/3kJK2IogYsj/qjYFbmoI4s2MiosZyQ9rcNdUz/8XbE5Gi/vwdOL93Bi4fWmh0qmYu0gxZ/9DNdXmuRXB1dHRCxCi67x0xETf2LO6kcrYYshzZsqJ7p3bKU0NMvq/HTJyKBw+NC7CWPju2cvziOdORLGmSYMsn1bh+HbRs2hgHDh1Bv8HDQxVD8mRJMLhfH3U/mn39+hUSJqfZsZOn8Pf/hkH+7t/k910qosWPp3sX9/LyUhU1IkTQrSnu3n+Av/83NEBYraGbtFbQkOu1b90ctapVUc3Kd668K4nQopvzPpi9YBGWrlhtcENNvqf/3bDKT5ckL4p4Ik0dP0qJI/p24eJldOhuuupTcAxiudIl0LdnN7X51KpD1yA3Kd6C40fqSnHXbtQMz56bTvQc5AsGYwMyH0cMHoA8uXKoTUJJknrqzLlgvIJ5TWXOmAHTJoxWGxQVa9Qz7yQbOcqmBA3ZKR9dc5baMRdBYt7RKXjy9qFKTJgxYTa0LNxF7Yjvv7kD849ONTgE6RJkQu8yw5TwsOj4DOy5vs33uLq5mqJcpmp47+2Jvzd2hIdXwFhjTdAQLwZnp4jYf2MH1pxdrHb1I0eIAmmjaBrd7t/qs4uw5eKaAP2I6hwNY2vOgQgsIlzMPDQej97eg+zup42fEW2K9ED0SDEgC9e/1rc1uBMvXhWy2E8ZNy16lPofHr29rzxKupToB09vD7XoFk+PnqUHq7b6b+qCh+4/E4fJAlsqaYjFi5YA/crrYqlG7xyo+qJvsigPSYsZOTZGVJuuFv3SdxmXq88u4tOXD6pv2RLlRoXMNXHs7n4sPzUvRHhqgoYIYY5wwOITs9X1RHSQcRLG4hH0+Zs3OqxoZNB7plKWWqiZo5ESXGYfnoCT94/4ihaxosRBJtdsqJK1rvLSEGHEv0Vxjobw/70AF0j5h5pLcr2e/sSLbz++h1glmgL58mDkkIGqa0EpwaYJGvJy8OPHD0yYOlPt7Mp/y4uHvFhmy5JZiRyVatQzuAMSJXJkP9VVxLNDXIfFQkvQENFizZIFiBYtqhIvBg4dgctXrqpFc/p0adCjU3sl2IiZI2jI7s+86ZN8h/79+w+oWreRcskMSTNX0CjbfI5aSL5+fAX/zg24oyKVF2SxJW7q53ZPw62zG1UJyYhRYiFHqfZIkbW8+kxKbxpbWIiHxNfPn/D8/hl4vdcJpSJwpMxeATnLdFGLwDvnNuPYJuMvxonSFkGxuiPVubKYO/2veFJcVwKLS9xkSJmtAlLnqIpDa/vj8Y1DftBKSVFNUIkWyw1lms1Sn+9Z0gVvn/sNlZCFU0haUAQNtywpUbR9DdW9bYPn490Tv5WGrOm3zM+enTuouS0mL/NjJkxRO5XGLEfpjsiQv76qELN6VBlrLqs8bLSyrTKfZO6c3DoaLx+eV89a3ERZUKT2P2oB++L+WYjoYcgiRompQqc0E0+iPBV6qX+GlqARL0lWlG46Q11T+n90/RDlxSDzzjVVfuSr1BuaCBdUQaNG981KGHh0/QAOrNRzH3ZwQARnXWWqonVHIX7S7Di4qi8yFW6sWD+4shu3z21B7IRpka1EWzy6cRAHVgRc4JRpPgtxE2VWyUePbhiCZ3dO4Pv3ryoxaYEq/RAnUSYV9rFpah0lKPg3TdCQvCrhnCLizM6JuHVmo/qOEO+qIrWH+yaK3TG3JV49/ulFqrUlnhllmumq+1w+vEiJlCKciokQGtstAzIXaaqEkt2LO5kMTRKX+/p1akIW4LJgFVFZBOWFS1eE+HewuMrnypHdrOdDdk+l8khI2Y6Na5QgLxXKlq4M+I5q6XU7tWulFuP7Dx4OlZ1/37kRJzaWzpupSsRLOfdxk6fj7LkL+PDhA1wTJp+OLKoAACAASURBVESBfLnRoG5t7Nqzz2ACxOgu0bBq8XzFQr7rho4YoxJ6OoYLhyyZMmJg315qI+Pps+fKkyWwUFlrBY1WzZqgUb3aSqyQnGSbtm7Hhw8fVXWQZo0aoEpFXSWsf8ZMUGFT/k3WM1GiRNYdM6i/ercSYUnaFMFmz/6D2PbvLqRJkwqtmzXB4aPH0WfgEEuH2eLjxStKqsvJu5N4VATGL7ALyLujiHFiHbr9hQuXAn5fBNaGuZ+nSpFceesEp4lwVa9WdSWqysZYh269cOtO6CZ0Fi+R4f/rpzzVJK/J72Q2JWjUztkEFTLXwOsPL9F7fbsA3g8SqtC/wiglAPTZ0N6od0O93M1QNmNVeH35qNp55/UWSWKlwP8qjlU78RP3DsfZh8cNjrMmaMiHO65uUuEY+iZfLAMrjFUhE+Jd0WtdmwDt1MrZWIWEyOK5x5qW+PTlo59jEsdMhqFVdIueOYcn4tDtPUbnnIRE/F1uhAoT0YQH8Tx57+2hzplYZ6EKX+i+poXiZsh+dQ6NFoU6oXCqkoqDCEmGvEHEe0ZCcgzlSwkOnpqgIRwlnEMEM33LmSQfOhXvq/4kfRQhyr/1KTscIpidun8EU/brFlv+TbyJJE9KYHlfflUOjbo1q6udArHSlWuq3QprTBM0Pn78iK69+wUosypulf/7W/cC3aRlO/UyEZjJy8eWtTohKLQEDfnxadequdohadSijXLT0zcRWaRGupSDNUfQkFCTZfN1C2ixN+7uqFE/6D/0gbEzR9BIkv4PtcAQk8XkzdN+S3rJbm2VzmvhFCGywc/lPG2H/O6FbWoBZKlJyECGAg3w+ZMHVo82HG4kOTsqtluqFlWvHl3E7oUd1CLLv8kudWAlLW05h0b6UrmRvabOjd6acBV9XvJCL2XxalatrDYIxC153uJlKmFgYC+h2qJVBCWpFGON6Qsab1/choSH6Lwzflrein8hdc6qJueG/2vrz+nQEjT+qD8GbqkL4v3bJ9gyrX6A8KmYCVKjTNOZSuAIiqAhImLNHlvVLV/YN0uFshiyko0nI0HyXCqkKlaCNMpb4tpx3feo8BSu/kNW5DPxdJHnWWzXgnZ48cDvbqKEukiFoMgu8WDsedfmhogeh9b0C+C5Jd8p1bpuVCLU7bObcHxzQDd4zVtF5sPq0cZLHEt/xNvLHHNzTajCUKRkqZi4xEuyvpOnLfP6M+da2jFyrTHDzQvHWr9pa4glD5SNgn836mL4h48eh+07jb9fBnZ/skCTUFLZhXd2jqCSi8p3RmhZnx5dVJlUWfw3btUOr14F9CSWcJRv378bDJ3VEiTKxkLtxs1UO/ommxUL/ttEGT56fKBhStYIGuKFsXrxPCXKSF4I8Vr1b0MH/q04yzyVMAFT38kTRg1DzuzZcPP2HaRJldLPmFSuUBY9u3RU9yH3E9KWIH58rFw0R/2myDVnL1hscIzM7YdLtGjYuk733TVkxJgA4Y/mtmPOcVqpWHOOtfYYef9r06m7qiIYGpYpQzr07tEVSRMnstlqMaY42YygIXkzJtVeCFnYzj0yCQdvGY5/7FvuH+XlIDkoxGPBkEl4yqBK41V4w8n7hzHtwGgMqDBaufsfur0bcw7/3EH1f74maIhgIDv1hkxCQSQkRGzApi4qL4Vm4lkxue4S5Y2w8+omLPUniGjHaYtj8bzot7GT0THUBA05QLwJhmzthbuvf+YW0ASN1kvrBMiNoTX6KwWNhNHd8E/VacpjZv355dhwPuCXuakJHFw8NUFDBCoRqvxbfJeEGFVdt0s0eucAXH56PsAx2phJ2dtBW3oECCmx5AvrVwkaWmxtUNVbTdCYOG2mcmv1b7LrsXHVUvXnbr37meV69ysEDa0c3dHjJyExqYbM0qSgXTq0QZUK5eDl5Y1ps+diy3brwnosmU/6gsaxTcOUB4aYLAJkQSLhG8kyl1beESoh6LLuAXY6sxVvg0yFm6jd5o2TaxlMyCeu6aWaTFGfrRhezKDQYKrfidIWRrG6Om8xyeFhyENCP8RB3OTFXd5aC0uCxvXdp/Djm+FkuW/uP8ejc35zxuRtVBYpC2XB5w9eWNt9srUIIHHbndu1VsnWxA4dOaY8qiSUyhyT/Bkyv6S8qLE8DIG1oy9obJ3RCCJq+LekGUuicE2dSLZsSGGz8mGEtqChnrMOq1Q41pmdk3HtmOHwxOBICioeK0nSF1PP6Y75rVUoiyHTBA357PHNw9i/vKfvYZqgce3YcpzZ6fe9RztPErxundHYYNua2CDP+9qxFeDtT4TSBA1Tc6No3ZFInLaIyu+xcoSuTLi+adeQcJd14yoFuEZgc8vU538UKYRO7VojTuxY6jDZyZ48fbYSmoPbZHFcv5bOoyowO33uXJCEBlPtS4jGotm6Xe7uffpbJeKIR0b+PLkRK2ZM5d0gnpc7du9T+TNC2ttQuzfZ5V48Z4ZKXj5v0VLMX2z4WTPGQgSYzauXKSFh9fqNKj+QIZs8doTyeBDPjT9bdzA5dNYIGtrCWcIQqtdrojxN/Fv2rJkxacwI9WcJfzl4xHCIl3yuCRry30eOnUBvvRKnmqARmiU7ixcrgi7tWyNmjBhqnrx+8wZv33mgdcdugYrlhmDv3b4R4mkV0sk1xZOhWKGCgT2qVn+eO1d2xeTBo8do17mHyqkWEib566SUsDyrWgiTeH+Jt/GLl+b9xodEv0KiTZsRNDTvC4HQa11rvPA0HCep5ZYQoUJyWBgzybkwoMIohHMMr0IDJJHjqw8vlHjgPymmfhuaoCFeHZ1XNjHYvCTYFG8PMf/eHoliJlV5PMQkR4fkhTBkVbLWQfXsDVSFkhaLaxhNRKkvaEjejgl7fiYGk3ZTx0uH8I5ORhNRyjG/UtAomLI4WhXuohCIt4qMgSUWXDw1QUNClSRkyb9FjxQTk+roYnzH7PofLj0JuJNTOUtt1Mihi82/8vSCEtVuvLhsVbbsXyVo/DN4AArlzxvkhEGBlW3VV9rNfakKbUFDv4/jJ0/Huk1bDE5NSwUNaUR+yD55fcJnK8p0WvJ8aMfqCxrGzpfdTVmAya6xoeoBJRpOQMKUeXHv0g4cWfc/g83ox+5vnlrPYFJOU/0X1/hSf+rKmhnLxyDlKiVHwUePF1g/QZc53FoLS4KGqXu4c+QiTiz6188hRdpVR6KsqeD5wh1bBvj1FDSXh7zU796yXh0uu0QTpszAkeMnzD1dHVen925VPvTWmQ04scWwZ1pgDZqqcqKdK4t3WcSLLR9axCyxLLQFDf0+bpnWAO9eGXYnNlfQkNwbIvCIiegvITUucZIibd5aKhRE7OL+OeqZNWb6gsa2mU2Up4ZmUq7ZJXZSSBJW/8k9a/X8V+UuuXp0Kc7uMpzoMV6SbCjdVLc43jm/DV4+9Ju4UBM0pITv4bUDDHZRPLLEM0ts1chSAcrP6ofwSH6di/vn4uG1/cFSGUmu6d87SfJGSf6o39UknGzWZN3ufMfuvZVnoaU2dsQQ5MmpyxUmJhUTJGznzDnrxWVL+1C2VAn83UtXicuafApSdn7hbN1vjeQzOHbilMEuaIKDhCeVLF/VaBJzOdkaQUOSRYqofP3mLbRsr3sX9m/y7O/bvlHl9pizYLFibcz0BY1mbTup5KaaiXAnQpDkngit/BOSlLRmtcqoWqk8orv8zJVVvFwVqyquaOFStlbpxP94SQWYyWNGqu8fCens0uvvEBEDG9arrcKMNBMvn2Wr1qhEs9ZU8rH0OQ3N421G0CiUqjhaFuqidr1nHhpnNE4ya6LcqpKJ7JIP3Gy67KB+Ak0Z2GHbe6u8E6bMHEEjbtT4GFNTl4huwbFp2Hfj54to9sR5VJ4LMemf9NOQFUtTGk0L6H7kTSXl1Bc0xu8ZgvOPDH8pm7qnXyloSM4JyT0hIRgi3PhPlBnYwxBcPAMTNCTvydR6Oo8CY4KGhCt1/KMPpE+aSU6QC49P4eS9I7jy7HygoSbaeb9K0NCylYvLealK5u0mGRqj30HQkNjTOdN0L7amdkWsETQCm9fB/bm+oCEVQCTfgVQvEAFBTBYcshiVXVJjVrXzOhX3LpVIJGbfmOWv0k+5kEtVBak+YMhixEuh3N2jx02uKp1IHgDpjyQd1XIgGBM0JOdF3MSZTeZSMJdfWBI0zq3db9RDw+Ppazy/7jcsK0ft4khXIhe+ff6KVZ2scx/WFzQkQa2Uk5NdNEtMS0z55NYR7FvWw5JTfY/9XQSN9PnrI2fpjuq+Vo0srXJPGDJzBQ1TMCUvxY1Ta3B+3yyTeSN8Q04sCAkSgUqEKjFTnibRYiWG3IuYVLfxX63EHEFDxEkRKcUk945UKfJvGQs2QrYSbdT3g9j3r59VtRsRNh7fOBhABLF0Eopr/JABfVR1id9d0JBF7foVixUi2aXde8BvjiFz2CVMEB/yf0mkWa50KYgHgYRl9uw7wOJk3eZcz9AxrZo1RqN6ddQuf3ERGiz83pKNG9nAETNVulYqmMlvvJiEh5ryXLNG0Jg7fZIKDTHlBSrXljGTsQtsfmqChlRHkfv6lSbVVyTEVrz/3N++w8Yt23D12g24v3uLW7fvWryg1v+9Em8gqapjy6ZtIMqz06VXHyUMBreJV0aSRIlULhjxOpFwbykJvGjZSpWU/ncymxE0qmarh2rZzE9gIvkiJG+EKZMkj/3K63aUJPli3w0djOaZ0NoxR9CQ5KDT6+tCJyTsRXbqNSuZrgIa5dOVyum2ujnefDTs8qOfs2Hw1p4Bcjpo7ekLGtZWI/mVgka7oj1VRRHJmyH9t9SCi2dggoYk7JwWiKCh9T1rolwolb4i0ifMoirwaPbukztWnlmAo3f2B3qbv0rQqFqpgkrYKVaxRl2VJdsa+x0EDS15ktx/2y49cPmKYbHT1gQNyU/w/J7OM6xQ9UEq1ESqFWyeVh9eHwxXM5KFRP3+h3wXFObMCSkjKbH5+ib5LwrVHAzZOVffu5/eqWSCXh/cVQiBxNTHT6bb+TMmaEjeAMkfYG2JUP3+hCVBw9I8GKmLZkfu+qV0vzPdJuPzR8vz3ciOn7hUS+ZzMYm7liSglpRELlxzKJJmLKFKeW6Z3sCcqRHgmN9F0MhVtgvS5a2jqoEsG1rYKAtzBQ2p6OH5Widk+fz4hk/vX+OT50tVAvbu+W2+yTFNQdcEjcAS7eq3ESNuCpWnRuzohsG4e8HwwkGSm9b+Sxcyd27PdFw57PcF2RxBI3G6IihaR/cetmOehM5cNHg70qcMhRoiUepCqkSwZpIM9OrRJbh8aJHFXhvyYl+3ZjU0aVgPkmtBduHHTZoaImGA8qzJNcwx6UdIhW5IFSNx25f+GAsJNaeP+sdMGD0cObNlxc7d+zBk5BhLT7fqeMnBJYszERhEaLDUqleuiK4ddZV9JGGlMff7IgXzqyooYpLvwFSyVmsEjS1rlqtQAEn2KUk/jZnk8pCwJcnzIl6txkwTNAITPizlZc3xEtI1uH8f5Yn6Z+v2ZlWKMXUd14QJsHKRzhut198Dceyk6XK81vRZO0eqkkTQq5QTlLYMndugbk0lyIkF13NoTh81j6OXr16jRn3DUQbmtBMWj7EZQaNEuvJonK+N2sFfdXoBfAKhKQk3pZqEMZMKH0MqT1DlX+VYqZxy/flljNjxt0nV0BxBQ8p8ShUTMf8eGvmSF0bboroYVmPJJeUzzSNF/luqXLx8/9zgrdi6oCFjKmMrZWtbL61t8TMSXDyDU9DQbkLypGRyzYEcSfIid9ICKv+L2OITM7H7mt+Fnv8b/1WChpS2mzhalxjS1K5FYAP1Owga+nGrpsJibFnQEAGhUvsVyrVcvCnEq8KY1eyxXVWZeHLrqK8gYmoeSHv+d1u1cBGpciAJAO9d2gmfHz/zRpgTclKp3TLl2RFYfwObo/K5LQsa8dMlRYmuuheif4cvgvsDw78RgXEQd+aK5cqgbYumqpqP7BZt2LwVs+YvgiT1DcyknKaU1ZTqJKrUrxX2uwgaWr4HQbB8WNEACUE1NOYKGl4f3mDt2IpWEP15ijWChpSUrdFdF2J3avtY3DhpuBJGlOgJUK2LLmTp+KbhuH1us5++miNoSGWkAlV1CzRjHhr6jYonV7zEWZAoXREky1gSEjYjJqWipZKLuSZVLHp0bo/kyZKqU6SU5egJk1VMe0hYWEkKKve2esl8VcpTPLIkF0FQTVskHTxyVJVHDQ3r1rEdqlWuoBKXSwJzS83cxORa6VFpv26TFioxpzGzRtCQKi0SBhJYydtVi+cpr5jARKOwJGhIwlZJ3Hr7zj00bWM6/4g545cpY3pMn6ATzIJShc+ca4VGUlDpx/LV6zBtlvGQQXP6askxWTNnUonsJRFu+eq694ffxWxG0JCSl1KCVMxaTwT9Qfszfzv8kbYsbr+8joXHp/9X4SS8Kgv67xXjWZrNETQkuejAirqHzn+eDP3PRu7oj6vP/Macan2Uai5S1UUEHAnFMFYVw9YFjdIZKqFBHl19+Q4rGqqSuZZYcPEMCUFD/z6kNG23kv1VNR0p6ypJWiU/ijH7VYKGlAlbv3yRykodFJe030HQSOTmiuULdKFjw0aNw7+7DGeDt2VBQ+4tRZZyKFBN53pryKtCm6NaqIclO73681uqOtT5a7cqw3lh/2xcOhCwBLM5gobs5squblA8ArR+2bKgEdElCqqNbAcHRwdc2XYMFzZa7jru5zsqRgxIyFmp4sXUnyUxoiTKC8wlPWmG4ihcS7eI2bO4E57dtTzs8XcRNFLlqKLKsopJfhfJ82LIwrqgIX2u23efShos1VOkioohi+OWEWVb6DZvdi3sgBf3z/g5zBxBI2PBhsheUleGd8Xw4vj21XxPo3DhnVWVlhRZddVPzEkSLLmY2rZspqpjiJjn4emJabPmGSyHacm7SGDH5s6ZHcMHGd9Z1z9fynZKctKQsvEjhyFXjmwqPEQqhgXVWvzZCE0a1MWO3XsxdKQuf1xIm5SJleSkYlJ+UhKZW2L6uUQkf4Gx/B+SUFGECglpkdAWUxVGrBE0Rg8bhHx5cuHi5Sto31VXYtqQ7dm6XpUaDix3RFgSNDQPDSlN2qyNLmwnKFajaiV0ad9GVaypUKOuKn0aUia5J2ROB7eJZ5QkNRXbve8ABv8z2uLQm6D0SSrgyByx1rMpKNcO6XNtRtCIHSUuxtXSqViT9/2D0w+MZ/kNDJqEBHQrOUAtKPtv6oyn7x6pBJySiPPr9y8YsLmr+pshM0fQKJ62HJrk17mySflY/baiRXTBlLq66isrTy/Atst+SyNq12xfrBfyJCukkp9KElRjFtyCxv+2dMO914bzegTG1ZrPM7vlQI9SugSDk/eNwOkHRy1qJrh4hrSgITel700ycHNX3H/zM1mT/5vWBA0JhWq1xHLPFYsg+jtYynpJNmz5sajdqKlVYSe/g6Ah7sE7Nq1VWdRXrdtg9AXTGkHjVyYF1Q850YZeK7cqcfkSevLpfcBQOM27Qtzdt0zXJb+1xPTFCkN9kLbMETSyl2wHiakXL4/1E6vD673hMBlz+qYvaGyf3QxvnprOoWSsTXFdFy8HKYd2+ux5sxNrpiyYGXkb6xZjloacyDl5GpZBqsJZ8dX7Czb1nWlV2In/e5KFV7dO7ZDI1VV9dOLUGVVC8ukzwx4gsmNesc1i5TUjlTZ2zNMtMiyx30XQcE2VD8Ub6PKZ7F/xl8rvYMhsQdCo2HYpJNeNeGTtk6pHBixNrurIU0HncbpufBUVDqNv5ggaUrlGKthIAtQ1Y4yXZTU2n/S9SaRSi1RsMWQiXpQrXRLtWjXzTU4oIvWUmXMsXgxbMrfD4rFaQk1ZpFer20jlNwiKaeVTl61cg+lzDJcPDkr7hs7V93jpN3i48nCwxCTMQ8I9xKbNnoflq9YaPH1Qv94oXrQwHj99inpNdJtvxswaQUOqntWoUkntmFep0xBfvwYsQZ40SWIsmTtDXTawcqVhSdAQL6ip40ep50tEp6DajEljkTF9Ouw/eBj9hwQs8RzU9kP6/Azp0kJCpcTT5sz5C+jZZ4BViVGD0k/t2b92/SZadewalKbC3Lk2I2gIOUmmKQkXH799gAGbu5idYFGferSI0VWVkeiRYqgSoVIqVCx8OCcMrTwRCaMnUgvNwVt7GGxfEzSkEooIDR5eAX8IpMKJVDp56H4X/TcFzFqs3cdzzyf4a51O+PDbRxdMqL1A5V9YcXo+tl/WuXQasuAQNCT8ZmaDlWq3YsmJ2dh1za/baEjOWkmkOazKFEj51ifvHqowHEsz7wYHz+AQNCR3yqcvxl20i6YpjWb/JXqV/C6S58WYZXHLie6lBqqPpfKOlO8NLZPF9vKFsyH16sW9ccTYCUa/dKNEiaLigv2XuQuLgoa2KyWl+f43zLxqDCOHDESBfHlUKbVqdRsH2J2RZFfTJ45VydEkW7xkjQ/MunZoqwQjXdnWediyPWBVncDasPRz/aSghsQESfYpMfPhnSLh6e3j2Ls04A+dWnS2nKdKUh5a0x8PrhgP6TPUv5gJUqNCa12MvbFEg/oLpI2TauL92ycBvx9juqFS++VwDOeEm6fX4+RW49WsAuMk91unz26VG+T0v+Nx/cTPfEeBnav/ebtWzVGvVnXfP5nKmq9/XlAFjYjRIqPS0JZwiuiM+yeu4Piif40mFnWK5IzwEZzg5fEh0FuTnUDZnapXu4baTZIYaMmsv3z1WrU75t9cU+aFiGJiJ7eOxs3ThoV6+TxaTDfluSA5UzQLi4JG3MRZUKaZrlT3pql1fXNZmIInCW2rd90I58gxVOLcAysDfh8kSJ4LxRuMU/NXqpNIlRL/poWu/KqQE+lP+nx1kbNMZ1XxSITDT54BvU3Kt1qAWAnTwlhCWE3QEKFLvCf0w8vkGs6RXFC922aVCPj68ZU4vSNgDgHxEpGcJPrzRZ+Xn5LUBvL2yLHJkiZBj84dkDVzRnXqo8dPVInRs+cN5+sI9AGx8QMkueKGFUsQNWqUYInf135bJ0+fhVXrNoYKHdnpXjR7mgrXuHf/Af5s1d5kBRJDndKSMsp8qN80oBAroock45TvQAkLkPAAU9a4fh20bNoYr9+4o0a9xmb1R6pdzJ2mK5ksu/W79gbMsdahdQvUqVlNvYfUbtgM3p8/G+1GWBI03FwTYsVC3fdbiQrVgpQXRj9/Rrfe/XDqzLlQmWfBdZFMGdJh3IihqkywlABu3+0vs0I6g+v6WjvaHD189Dj6DNSVQf9dzKYEDbcYSTC0yiQ4ysvng2MqP8V7bw/fsZDqIpI89JnnY2y5aDjms1PxvpCEm0/ePcKATZ39uP2LONC33D9wgAM2XViJted0SbH0TRM05G/iPTF+z2A889C9dMt59XI3Q5mMVdS/5xyeiEO3A7qpJ42VAoMr6364D97ajQXHpvqKJ5LLQxbo0hepkCEL3y/fjH95BYegIf0QkUdKoD5wv4uh2/7yc00JkxBxJqRMv1LJ5afnMPvQBEhZXM3k+tWz11fhOTuvBhRbgoNnUAUNKesqYUbPPB6rsCUR3fRN2HYvORCxosTBq/fP0WOt6V1MEdzG15oPEXz23tiORcdmwOe/zDHyNxHe/F8jOMendvUq6NhW10fJlj16/GSI26CWSVyybefNnQutmjXBq9ev0a5LTz8/VmFR0NBeCiThWt3GLXyzlUuSNPmR+fjpUwCEUppOStSJiTvt8NHjfRmImDH2nyG+MdjmCBry8iUxs5q5u79F9fpNrKrHbsl4ByZoSFvaAkb+W/Jb3D67KcAltN1UqZJycstIPLi61/cYCSVJnrkMUueshv0reqmEn/oWLpwTav21Q4km4gkhCQDFy0IzqXaQr1IfFZIiJrvCsjtsyHKW7oT0+eup6g7Xjq/A+T3Tfct4ijjhlqYgshRthhNbRgXqdVGx7RLEiJdSlbPcOa81pHytZiLCvH1+yyRq8c7YsHKxn5J05r4sBFXQkI5JpROpeCImeTROLt2Jt49ewOeHLtNUpBhR4ZoxObJWLYJPb99j1+hl+P7VeLib/s36Xwhu3r4Do8bpXr79W9G6I5E4bRH153sX/8X5vTN8Qy5kTGQOSmiAlOmUuXVy28/kgWFR0FCVPv7apQQ8EWhEqNEsQsSoRitrZCvRFpkKNVZz88TWUaqcrWZS5vSPBmPhFCGy+lNYFjQknKNq57UQDwh5XuV59P6o+12W8cxVtivS5tHlLjDm3aQJGnLM45uHcXT9IF9uwlc+j5c0G3x8fmDT5NoBBEz5LpBjosZ0xZkdk/Dk9jE/FV0kB1DBGoOQMIWusti68VUDCC+yKF29eJ76jpfdb8kbsXj5KoM74SYf9N/sQ3HdFxd+yRnStHWHIPFYMm+m8k4bOGwk9u437JUUEvgK5suLEUN04ZISPjN81Hg/myupU6ZA8yYNcebcBaxeH1BoSZ0qJeZN132fSRLN0ROm+P4WR4saVbUtXgbmCAnShn5//LMQ8ejDB8MbXv8M6o9CBfLhnYeHKiEru+ealS7xh8pDIb8zU2fOxYo1pkWVsCRoyGbXri26/op3i3i5WGud27VW5V/FU1BymVi68WntdYPjvOTJkmDKuFFwiRZNvXdKctlXr98ER9MWt9G9c3tUrVgeG7Zsw9iJUy0+PyyfYFOChoAskrqUqhISIVwEteiWnesPn9+rBZ4IGuJlIEKAeE94ffG7QCmSuiSaF+ykHoRh2//CrZfXA4xNk3xtUTxdOZW7YsjWXrj7+ucXixysCRoSmiK5ECJFiIIXnk/x4v1zJIudEi4Ro6s2T90/gukHxxj1IimfqTpq5WysxBkRZe6+vgXn8M5IFjsVIjpFUvc0df9IXH1meAdBzpfytOJdES9aAnVNWUxreRlG7xxg0HvE2GRMlyAzepcdqkQZ6c89CYfw8UGC6G6qfbmX43dD7odKKthULuwmaAAAEvpJREFUzlpH8RD2wlTyabjFSAypMCImQoBUovny/UuA2wgqz6AKGpL4U8oKi5eGmMzBR+738enLB8SNlkDNDTGvr58wdtf/DM49/zelX1ZYxLOnHo/U3EgUIwkiOUVG7/Xt8OqD4Rjt4PjSkaRZPbt0gHhhiEnW9YePnqgSXPKSqJlk/Zbyb/pZwoND0JAkhcWL6RZIYhL6ES9uXPXf8oIhu8aazV24xGiOC+0Y2S2YP2OyerGVOFip+y4vuGlSpcKFS5fVi4R/k++T3t07q3hr9Yw9f6FqhkeOHBm5c2THi5cvcfnqNfW5OYJGqhTJMX/mFN/LeL5/j6p1GgXpZdKcsTZH0JDFQ9nmcxDbNb0q3yoVK/znAJDFjVS1kEWI2Id3T+Hx6h6cI0VXIQeySBETgeGyv4oH8ndZAOUup3Nfl/CWRzcO4duXT0iQIrdK0Pnw6l5VwUTaf+/+CHsWd1HX8G+yIJS8H4nTFVUfSaUDj1c60TV6nOQI56RLwCvlaA+v1b3wGjOpqlKq8RS1cBW3d/dn8rvgg2ixkyhvAjlf2jFlC2dPQ4r/kgvKcWs3bsaEKToXYVMWHIKGtJ80d3rkaVAa4oWheHz9Bs8X7ogcIxqco0by7cLru09xZPYmfHQ3P95cnoEKZUuhfu2a6Nyzj9EXMQk9yVqsJTIWauRbDUeq53z0eIZosRMrIUszqZohSSS1XffgEjRK/zkdkqhSs3BOEVUiWzE1l31+phPfs6SzwRKh+uMl4RTiNSTm/dEdb55eV/NU5sX2Oc0NimXyLJRoNAFyT2JSJlnEsqgx3VRI1aPrBxEpaizESZQpxAQNyVcjOW/EpK/ybzUW/3lZiPeIIc8Q/3M1YYrcKFRzqPKkkNwW7s9u4Kv3R8RyTaeEDvHeOLt7itEwD03QkOfKObKLPFZwf35DiYaxXdPp5oSPD87smmywDSkL+0f9MYq5mCSeffvyNj55vEDEqLEhOTy0Ms+nto/DjZOrDT5utWtUVYvNsZOm4mEIJf0M7FkPa5/LpoT8FsWIHh1BDRXRfu87dPtL/ZaGpjVr3EB5k0neL9lwefTkKTw8PJRXjiwgxWQR3LhlWz/vDFofxQutTfM/1fkiKEiFp4jOESFl2yNHjqRyrAwYMgJnzxvOd6d/r+LJMWvKBKRKmVz9WeaavDOIcBI+fDhUrd3QoLerlA0eOWQAUiRPpt5N7t5/oPqcMnkySC4vMcm3IFVQDFW/kXea6RN0gqt4Msi/JYRFKzF78MgxzFsUcIM2NMbp342rlbdvpx69rS5Lmi1LZkwa849a3/UbNAwHDlsWmh4a92nqGq2b/4mGdWspQUsq5t1/ELA0dWj1UfM6lndmycfyO5nNCRoCX3a7pTqGhHWIsKGZLIAP3tqFrZfWqsol+iaLyqGVJ0EqT0iFCak0YchkoTi86hS1ky4hIf03dvazgNbPoTFka0+0KtxVeVOIECAmfTh8e48qzxmYgpghYVY0yNMCrjESq4W8mCzWb764ivlHp5gMSaifpwXKZKhsdC5akzhVEq82zNtKiUP6JqLOpgurcO7RyRCd+6nipkP9PM0hHhcSAqSZh9db7L2+HduurDfprRIUnkEVNKSvImbVyNEQGRNmRZxo8X3nhBrXb59x6sERbLu83mzPCpkTko+leo4GqgqPZiL4nHt0AuvOLTO7LWsHTjKhizu9xC3Gi6vLJi8mYsL9hw+ViLBuw+YArpXBIWj81a0zKpYrbVbXx0+ejnWbdFn5TZlULuneqT0kJlUzeU6l/nfXXn2NuohKxuvqVSpCwnHExO1eciUMHTkGBfPnUzso5ggacu7QAX1RtHBB9WIzZ8Fi9TIZ0maOoCF9iBk/Fcq1nA/HcOFVckdJ8ujfRPjIXLgpUmavhCjR4/+clz++482Tq7i4f7bxxJAODkiTsyqyFW/rp/SilIu9enSZWtRI+EvJJlMROVocrBlTAV+8jZcOTpW9EjIUbKh2/2XXWJmPDzxe38elQwt0QoTeItYYZ9nhzV2uG1zi6CoeaPb6yVVcPjhf7S6bMkl+1qNLB/UC/fjJU/TuP8isagnBJWhI36LEdkH2Gn8gTgpXRI6pV9by6zd4PH2Ne8ev4Oa+s4H+Lhm7T3mZDOw3Tc6VRXvmos1UKIKU9dRMFtRvX9xSQtezOyf8XCa4BI0qndaoBbw5tmVaA7z7TwQzdrx4KUjOljS5a8DRMZzvYZ8/eSjvCxHgDJkICPkr91WeQpqQ8/XLJ9w5uxlndk1C/sr9lLdKSHloODlHRZ3exkU4qUYigpI5Js9j3kp9VGURTSgUIUPYndkx0WTFI/0cGrfObITk4ZH2NBOx8sLeWbh3yXjYnYTmiDdW8syllbAh//Y1Hx88u3dKhYpJ1aOgzl1zePxOx0geCklKKV+RHbr1UmK9pSaLeCkDK9aweRs8eGg4/5yl7VpyvLjzi0epeGRIuU3NxANy/eatWLF6nckwDUmU2KltSyWCiLAhJu84kqhz1PjJeP7C/I0jESe6d2qnEn3qm/wuyKaJhLcYMvFm6NS+NYoWKuArxMhxIois2bAJq9YaL1Ygm07/bjAeLrll+06MHDfREqTBdqyEnMhmkrVChIgzC2dNVXknzN0oCLbOB2NDklz28tXroS74+b+F6RPHIFOG9Mo7Q7w0fiezSUFDGwBZ8MniW/JiPPN4ZJFHgrWDaCgpaKQIkZEkZnJ4er/zDT+xpH0p5ynnf/n+WeWRMFbRxJI2g3JsjMixkNDFTfXn5fsXfsJ6gtKuuedqIRVRnV0UD/2wInPaCAs8xXNGhCoRyN5+eoM3H14a9Cwx535knseNFl95IInnh5TwlRwuoW2ymBfXOYkPlR9nLfwktPsR1OtJiEnChAnUToYo5vLCIDsz5picEyd2bNy8ddvkC1JgbUnoiafne7OvG1h7v+pz2Y2OET+lCi/xfPPITwiJqT7Jbr4sPCO7xIXHqwcQQcOPOTggRpzkgS44tXNk0SgJDMWk+okllRL0ryslIF1iJ8X3r9748PYJvP2FzZi6J8k7kTxpEty8fceshX9Ijpnk1ojuGgde7z7g/au3vuEnIXlNQ22LV0LUGAnU3PCfMDK0+xKU64lAED1OUuXpIPfx4a18/wUetiPin4QzidgmYo4IAbZq8sxGj5NMeWGJ14l+aJaxezKUFFR7xjxf34fkCLHEpA8iakR2iQfvD+746PHcpOBpSdv2eqy2eyx5sDr16GOVB8vGVUsRK2YM9Ow7EMdPnf5lKCWvhoS+iAfpvfsPLf59FVFBvCu8vT/j3oOHQQoFjR0rFpIkdsP37z+Up8TzF8ZzpvkHJot3+f+de/dtOmGtiEvb1q9UedZadeiqvF8sMflN/Wdwf0jor7xztencI8S9WS3pny0eK0lJxfs6qF5ZYfHebVrQ+BVAzaly8iv6xWuSAAmQAAmQAAmQQFghYE6Vk7DSV3vth3gkiIehVD8QUUMSWxvzIjDGaMTgASiYPy/EI2L2gkW4ePkq3rxxN5iXyl4528t9i8dO7Nix1eZX/do1IOEiHz9+RI0GTS1KgqnEjEH9kSdXDuX107V3P7x6ZX1FM3vhH9h9SnJZyScnXsaS6PvIsRNqk1LCuG3dKGhYOIIUNCwExsNJgARIgARIgATsjgAFDdsYcgkn69CmBWpXr6q8Cer92cqiihQSajd57AiVA0Kz7Tv3YPjocbYBgL0MNgISTithtZp5e3uje58BKnzHEpPcZRXKllYJUnv+PQAensZDTy1p196PlWf9717dUKakLpG4mHgP1WrY1ObRUNCwcAgpaFgIjIeTAAmQAAmQAAnYHQEKGrY15FLSUaqWiRhhqYmnh4QGFC6YH3HjxsbVazd+u6SDljKxx+NzZMuKRvVqw/3tW5y/eBl7DxyyyDNDYyZhuc0a1cfI8ZPh5RX6Ida/+9hJotpSfxRVSWclfLzfYPNyKoVlLhQ0LBwdChoWAuPhJEACJEACJEACdkeAgobdDTlvmARIgAR+CQEKGhZil6oTJdKVx0P3e5h5iO50FuLj4SRAAiRAAiRAAnZAoEDV/qqc84Mre3D16K8pG2kHmHmLJEACJGD3BCho2P0UIAASIAESIAESIAESIAESIAESIAESsD0CFDRsb8zYYxIgARIgARIgARIgARIgARIgARKwewIUNOx+ChAACZAACZAACZAACZAACZAACZAACdgeAQoatjdm7DEJkAAJkAAJkAAJkAAJkAAJkAAJ2D0BChp2PwUIgARIgARIgARIgARIgARIgARIgARsjwAFDdsbM/aYBEiABEiABEiABEiABEiABEiABOyeAAUNu58CBEACJEACJEACJEACJEACJEACJEACtkeAgobtjRl7TAIkQAIkQAIkQAIkQAIkQAIkQAJ2T4CCht1PAQIgARIgARIgARIgARIgARIgARIgAdsjQEHD9saMPSYBEiABEiABEiABEiABEiABEiABuydAQcPupwABkAAJkAAJkAAJkAAJkAAJkAAJkIDtEaCgYXtjxh6TAAmQAAmQAAmQAAmQAAmQAAmQgN0ToKBh91OAAEiABEiABEiABEiABEiABEiABEjA9ghQ0LC9MWOPSYAESIAESIAESIAESIAESIAESMDuCVDQsPspQAAkQAIkQAIkQAIkQAIkQAIkQAIkYHsEKGjY3pixxyRAAiRAAiRAAiRAAiRAAiRAAiRg9wQoaNj9FCAAEiABEiABEiABEiABEiABEiABErA9AhQ0bG/M2GMSIAESIAESIAESIAESIAESIAESsHsCFDTsfgoQAAmQAAmQAAmQAAmQAAmQAAmQAAnYHgEKGrY3ZuwxCZAACZAACZAACZAACZAACZAACdg9AQoadj8FCIAESIAESIAESIAESIAESIAESIAEbI8ABQ3bGzP2mARIgARIgARIgARIgARIgARIgATsngAFDbufAgRAAiRAAiRAAiRAAiRAAiRAAiRAArZHgIKG7Y0Ze0wCJEACJEACJEACJEACJEACJEACdk+AgobdTwECIAESIAESIAESIAESIAESIAESIAHbI0BBw/bGjD0mARIgARIgARIgARIgARIgARIgAbsnQEHD7qcAAZAACZAACZAACZAACZAACZAACZCA7RGgoGF7Y8YekwAJkAAJkAAJkAAJkAAJkAAJkIDdE6CgYfdTgABIgARIgARIgARIgARIgARIgARIwPYIUNCwvTFjj0mABEiABEiABEiABEiABEiABEjA7glQ0LD7KUAAJEACJEACJEACJEACJEACJEACJGB7BCho2N6YscckQAIkQAIkQAIkQAIkQAIkQAIkYPcEKGjY/RQgABIgARIgARIgARIgARIgARIgARKwPQIUNGxvzNhjEiABEiABEiABEiABEiABEiABErB7AhQ07H4KEAAJkAAJkAAJkAAJkAAJkAAJkAAJ2B4BChq2N2bsMQmQAAmQAAmQAAmQAAmQAAmQAAnYPQEKGnY/BQiABEiABEiABEiABEiABEiABEiABGyPAAUN2xsz9pgESIAESIAESIAESIAESIAESIAE7J4ABQ27nwIEQAIkQAIkQAIkQAIkQAIkQAIkQAK2R4CChu2NGXtMAiRAAiRAAiRAAiRAAiRAAiRAAnZPgIKG3U8BAiABEiABEiABEiABEiABEiABEiAB2yNAQcP2xow9JgESIAESIAESIAESIAESIAESIAG7J0BBw+6nAAGQAAmQAAmQAAmQAAmQAAmQAAmQgO0RoKBhe2PGHpMACZAACZAACZAACZAACZAACZCA3RMIIGh8/+Hj4+jwk0umfEXw9etXuwdFACRAAiRAAiRAAiRAAiRAAiRAAiRAAmGDgJOTEy4fP+jbme8/AIeXnt984kYL5/vHGg2b4vK162Gjx+wFCZAACZAACZAACZAACZAACZAACZCA3RPIlCEd1i6e78vh5ftvcDh865NPwVSRfP84d9FSjJo4xe5hEQAJkAAJkAAJkAAJkAAJkAAJkAAJkEDYINCrcwc0b9zAtzNHbnvBYdzONz5dS8Xy00N6aYSNAWMvSIAESIAESIAESIAESIAESIAESMDeCWRKnw5rl/z0zhAe43a6w6H8hIc+C5q5Qj/s5OHjJ+jaux9DT+x91vD+SYAESIAESIAESIAESIAESIAESOAXEhAxY8KIoUicyM23FxJu0nTeM52gUTJDFPj30pAjJfxk287duHH7DhOF/sIB5KVJgARIgARIgARIgARIgARIgARIwF4ISALQtKlSonzpkn7CTLT7F++MPdc+6gQN+WObYjFRKWtUe+HD+yQBEiABEiABEiABEiABEiABEiABErAxApsvfMCM/W9Vr30FDYoaNjaK7C4JkAAJkAAJkAAJkAAJkAAJkAAJ2BEBfTEjgKAhf5Dwk4b5ovvJqWFHfHirJEACJEACJEACJEACJEACJEACJEACYYjAq/ffseS4B3Zf/einV/8HpV03sVKvB4IAAAAASUVORK5CYII=;" vertex="1" parent="pY5X2Zp6xEJPj-edMGkJ-1">
          <mxGeometry x="290" y="250" width="389.86" height="50" as="geometry" />
        </mxCell>
        <mxCell id="RtpKjHnQOfgThrui4pwx-0" value="&#39;Child&#39; will be a React function component" style="rounded=0;whiteSpace=wrap;html=1;strokeWidth=1;fontSize=13;fillColor=#dae8fc;strokeColor=#6c8ebf;" vertex="1" parent="pY5X2Zp6xEJPj-edMGkJ-1">
          <mxGeometry x="309.93" y="320" width="350" height="40" as="geometry" />
        </mxCell>
        <mxCell id="RtpKjHnQOfgThrui4pwx-1" value="&#39;Child&#39; might have properties assigned to it like &#39;propTypes&#39; and &#39;contextTypes&#39;" style="rounded=0;whiteSpace=wrap;html=1;strokeWidth=1;fontSize=13;fillColor=#dae8fc;strokeColor=#6c8ebf;" vertex="1" parent="pY5X2Zp6xEJPj-edMGkJ-1">
          <mxGeometry x="309.93" y="370" width="350" height="40" as="geometry" />
        </mxCell>
        <mxCell id="RtpKjHnQOfgThrui4pwx-2" value="&#39;Child&#39; will receive props of type &#39;ChildProps&#39;" style="rounded=0;whiteSpace=wrap;html=1;strokeWidth=1;fontSize=13;fillColor=#dae8fc;strokeColor=#6c8ebf;" vertex="1" parent="pY5X2Zp6xEJPj-edMGkJ-1">
          <mxGeometry x="309.93" y="420" width="350" height="40" as="geometry" />
        </mxCell>
      </root>
    </mxGraphModel>
  </diagram>
  <diagram id="h2Xj0hK8Pl88E08CW2uR" name="11 - bl">
    <mxGraphModel dx="715" dy="441" grid="1" gridSize="10" guides="1" tooltips="1" connect="1" arrows="1" fold="1" page="1" pageScale="1" pageWidth="1920" pageHeight="1200" math="0" shadow="0">
      <root>
        <mxCell id="TDTmLQML3k49ZDlZ0Vx3-0" />
        <mxCell id="TDTmLQML3k49ZDlZ0Vx3-1" parent="TDTmLQML3k49ZDlZ0Vx3-0" />
        <mxCell id="TDTmLQML3k49ZDlZ0Vx3-2" value="" style="strokeWidth=1;shadow=0;dashed=0;align=center;html=1;shape=mxgraph.mockup.containers.browserWindow;rSize=0;strokeColor=#666666;strokeColor2=#008cff;strokeColor3=#c4c4c4;mainText=,;recursiveResize=0;fontSize=11;" vertex="1" parent="TDTmLQML3k49ZDlZ0Vx3-1">
          <mxGeometry x="550" y="190" width="550" height="380" as="geometry" />
        </mxCell>
        <mxCell id="TDTmLQML3k49ZDlZ0Vx3-3" value="Page 1" style="strokeWidth=1;shadow=0;dashed=0;align=center;html=1;shape=mxgraph.mockup.containers.anchor;fontSize=17;fontColor=#666666;align=left;" vertex="1" parent="TDTmLQML3k49ZDlZ0Vx3-2">
          <mxGeometry x="60" y="12" width="110" height="26" as="geometry" />
        </mxCell>
        <mxCell id="TDTmLQML3k49ZDlZ0Vx3-4" value="" style="strokeWidth=1;shadow=0;dashed=0;align=center;html=1;shape=mxgraph.mockup.containers.anchor;rSize=0;fontSize=17;fontColor=#666666;align=left;" vertex="1" parent="TDTmLQML3k49ZDlZ0Vx3-2">
          <mxGeometry x="130" y="60" width="250" height="26" as="geometry" />
        </mxCell>
        <mxCell id="TDTmLQML3k49ZDlZ0Vx3-5" value="Party Guest List" style="text;html=1;strokeColor=none;fillColor=none;align=left;verticalAlign=middle;whiteSpace=wrap;rounded=0;fontSize=15;fontStyle=1" vertex="1" parent="TDTmLQML3k49ZDlZ0Vx3-2">
          <mxGeometry x="20" y="120" width="150" height="20" as="geometry" />
        </mxCell>
        <mxCell id="TDTmLQML3k49ZDlZ0Vx3-6" value="&lt;ul&gt;&lt;li&gt;Sarah&lt;/li&gt;&lt;li&gt;Michael&lt;/li&gt;&lt;/ul&gt;" style="text;html=1;strokeColor=none;fillColor=none;align=left;verticalAlign=middle;whiteSpace=wrap;rounded=0;fontSize=15;" vertex="1" parent="TDTmLQML3k49ZDlZ0Vx3-2">
          <mxGeometry x="20" y="150" width="40" height="20" as="geometry" />
        </mxCell>
        <mxCell id="TDTmLQML3k49ZDlZ0Vx3-9" value="name" style="rounded=0;whiteSpace=wrap;html=1;strokeWidth=1;fontSize=15;align=left;fontStyle=2" vertex="1" parent="TDTmLQML3k49ZDlZ0Vx3-2">
          <mxGeometry x="20" y="230" width="150" height="20" as="geometry" />
        </mxCell>
        <mxCell id="TDTmLQML3k49ZDlZ0Vx3-10" value="Add" style="rounded=1;whiteSpace=wrap;html=1;strokeWidth=1;fontSize=15;align=center;" vertex="1" parent="TDTmLQML3k49ZDlZ0Vx3-2">
          <mxGeometry x="20" y="260" width="90" height="30" as="geometry" />
        </mxCell>
      </root>
    </mxGraphModel>
  </diagram>
  <diagram id="RULwe_7SzL8dRWf6P0ZD" name="12 - null">
    <mxGraphModel dx="715" dy="441" grid="1" gridSize="10" guides="1" tooltips="1" connect="1" arrows="1" fold="1" page="1" pageScale="1" pageWidth="1920" pageHeight="1200" math="0" shadow="0">
      <root>
        <mxCell id="QiYZ5hcvYCE22GkrOtlR-0" />
        <mxCell id="QiYZ5hcvYCE22GkrOtlR-1" parent="QiYZ5hcvYCE22GkrOtlR-0" />
        <mxCell id="QiYZ5hcvYCE22GkrOtlR-2" value="" style="strokeWidth=1;shadow=0;dashed=0;align=center;html=1;shape=mxgraph.mockup.containers.browserWindow;rSize=0;strokeColor=#666666;strokeColor2=#008cff;strokeColor3=#c4c4c4;mainText=,;recursiveResize=0;fontSize=11;" vertex="1" parent="QiYZ5hcvYCE22GkrOtlR-1">
          <mxGeometry x="550" y="190" width="400" height="380" as="geometry" />
        </mxCell>
        <mxCell id="QiYZ5hcvYCE22GkrOtlR-3" value="Page 1" style="strokeWidth=1;shadow=0;dashed=0;align=center;html=1;shape=mxgraph.mockup.containers.anchor;fontSize=17;fontColor=#666666;align=left;" vertex="1" parent="QiYZ5hcvYCE22GkrOtlR-2">
          <mxGeometry x="60" y="12" width="110" height="26" as="geometry" />
        </mxCell>
        <mxCell id="QiYZ5hcvYCE22GkrOtlR-4" value="" style="strokeWidth=1;shadow=0;dashed=0;align=center;html=1;shape=mxgraph.mockup.containers.anchor;rSize=0;fontSize=17;fontColor=#666666;align=left;" vertex="1" parent="QiYZ5hcvYCE22GkrOtlR-2">
          <mxGeometry x="130" y="60" width="250" height="26" as="geometry" />
        </mxCell>
        <mxCell id="QiYZ5hcvYCE22GkrOtlR-5" value="Find User" style="text;html=1;strokeColor=none;fillColor=none;align=left;verticalAlign=middle;whiteSpace=wrap;rounded=0;fontSize=15;fontStyle=1" vertex="1" parent="QiYZ5hcvYCE22GkrOtlR-2">
          <mxGeometry x="20" y="120" width="150" height="20" as="geometry" />
        </mxCell>
        <mxCell id="QiYZ5hcvYCE22GkrOtlR-7" value="name" style="rounded=0;whiteSpace=wrap;html=1;strokeWidth=1;fontSize=15;align=left;fontStyle=2" vertex="1" parent="QiYZ5hcvYCE22GkrOtlR-2">
          <mxGeometry x="20" y="150" width="150" height="20" as="geometry" />
        </mxCell>
        <mxCell id="QiYZ5hcvYCE22GkrOtlR-8" value="Find" style="rounded=1;whiteSpace=wrap;html=1;strokeWidth=1;fontSize=15;align=center;" vertex="1" parent="QiYZ5hcvYCE22GkrOtlR-2">
          <mxGeometry x="20" y="180" width="90" height="30" as="geometry" />
        </mxCell>
        <mxCell id="QiYZ5hcvYCE22GkrOtlR-9" value="User Details" style="text;html=1;strokeColor=none;fillColor=none;align=left;verticalAlign=middle;whiteSpace=wrap;rounded=0;fontSize=15;fontStyle=1" vertex="1" parent="QiYZ5hcvYCE22GkrOtlR-2">
          <mxGeometry x="20" y="230" width="150" height="20" as="geometry" />
        </mxCell>
        <mxCell id="QiYZ5hcvYCE22GkrOtlR-10" value="&lt;span style=&quot;font-weight: normal&quot;&gt;Name: &#39;Sarah&#39;&lt;br&gt;Age: 20&lt;br&gt;&lt;/span&gt;" style="text;html=1;strokeColor=none;fillColor=none;align=left;verticalAlign=middle;whiteSpace=wrap;rounded=0;fontSize=15;fontStyle=1" vertex="1" parent="QiYZ5hcvYCE22GkrOtlR-2">
          <mxGeometry x="20" y="260" width="150" height="20" as="geometry" />
        </mxCell>
      </root>
    </mxGraphModel>
  </diagram>
  <diagram id="TKIg5UCmjIVMIQl_5pgK" name="13 - cases">
    <mxGraphModel dx="501" dy="309" grid="1" gridSize="10" guides="1" tooltips="1" connect="1" arrows="1" fold="1" page="1" pageScale="1" pageWidth="1920" pageHeight="1200" math="0" shadow="0">
      <root>
        <mxCell id="NlmoqbK20vAvL6CGFtf3-0" />
        <mxCell id="NlmoqbK20vAvL6CGFtf3-1" parent="NlmoqbK20vAvL6CGFtf3-0" />
        <mxCell id="NlmoqbK20vAvL6CGFtf3-4" style="edgeStyle=orthogonalEdgeStyle;rounded=0;orthogonalLoop=1;jettySize=auto;html=1;exitX=0.5;exitY=1;exitDx=0;exitDy=0;fontSize=15;" edge="1" parent="NlmoqbK20vAvL6CGFtf3-1" source="NlmoqbK20vAvL6CGFtf3-2" target="NlmoqbK20vAvL6CGFtf3-3">
          <mxGeometry relative="1" as="geometry" />
        </mxCell>
        <mxCell id="NlmoqbK20vAvL6CGFtf3-6" style="edgeStyle=orthogonalEdgeStyle;rounded=0;orthogonalLoop=1;jettySize=auto;html=1;exitX=0.5;exitY=1;exitDx=0;exitDy=0;fontSize=15;" edge="1" parent="NlmoqbK20vAvL6CGFtf3-1" source="NlmoqbK20vAvL6CGFtf3-2" target="NlmoqbK20vAvL6CGFtf3-5">
          <mxGeometry relative="1" as="geometry" />
        </mxCell>
        <mxCell id="NlmoqbK20vAvL6CGFtf3-2" value="&lt;i&gt;user&lt;/i&gt;&lt;br&gt;piece of state" style="rounded=0;whiteSpace=wrap;html=1;strokeWidth=1;fontSize=15;align=center;fontStyle=1;fillColor=#dae8fc;strokeColor=#6c8ebf;" vertex="1" parent="NlmoqbK20vAvL6CGFtf3-1">
          <mxGeometry x="680" y="340" width="120" height="60" as="geometry" />
        </mxCell>
        <mxCell id="NlmoqbK20vAvL6CGFtf3-3" value="undefined" style="rounded=0;whiteSpace=wrap;html=1;strokeWidth=1;fontSize=15;align=center;fillColor=#d5e8d4;strokeColor=#82b366;" vertex="1" parent="NlmoqbK20vAvL6CGFtf3-1">
          <mxGeometry x="570" y="450" width="120" height="60" as="geometry" />
        </mxCell>
        <mxCell id="NlmoqbK20vAvL6CGFtf3-5" value="{ name: string, age: number }" style="rounded=0;whiteSpace=wrap;html=1;strokeWidth=1;fontSize=15;align=center;fillColor=#d5e8d4;strokeColor=#82b366;" vertex="1" parent="NlmoqbK20vAvL6CGFtf3-1">
          <mxGeometry x="790" y="450" width="120" height="60" as="geometry" />
        </mxCell>
        <mxCell id="NlmoqbK20vAvL6CGFtf3-7" value="&lt;i style=&quot;font-size: 12px;&quot;&gt;When component is first rendered and when the search did not find a user&lt;/i&gt;" style="text;html=1;strokeColor=none;fillColor=none;align=center;verticalAlign=middle;whiteSpace=wrap;rounded=0;fontSize=12;" vertex="1" parent="NlmoqbK20vAvL6CGFtf3-1">
          <mxGeometry x="530" y="510" width="200" height="50" as="geometry" />
        </mxCell>
        <mxCell id="NlmoqbK20vAvL6CGFtf3-8" value="&lt;i style=&quot;font-size: 12px;&quot;&gt;When a user is found&lt;/i&gt;" style="text;html=1;strokeColor=none;fillColor=none;align=center;verticalAlign=middle;whiteSpace=wrap;rounded=0;fontSize=12;" vertex="1" parent="NlmoqbK20vAvL6CGFtf3-1">
          <mxGeometry x="750" y="510" width="200" height="20" as="geometry" />
        </mxCell>
      </root>
    </mxGraphModel>
  </diagram>
  <diagram id="RwOvbWqmi25CLsL6urOl" name="14 - ref">
    <mxGraphModel dx="715" dy="441" grid="1" gridSize="10" guides="1" tooltips="1" connect="1" arrows="1" fold="1" page="1" pageScale="1" pageWidth="1920" pageHeight="1200" math="0" shadow="0">
      <root>
        <mxCell id="d6CrOSBBniJGcMnvJROH-0" />
        <mxCell id="d6CrOSBBniJGcMnvJROH-1" parent="d6CrOSBBniJGcMnvJROH-0" />
        <mxCell id="YkJKgOc1pNPgFM848V_G-0" value="" style="strokeWidth=1;shadow=0;dashed=0;align=center;html=1;shape=mxgraph.mockup.containers.browserWindow;rSize=0;strokeColor=#666666;strokeColor2=#008cff;strokeColor3=#c4c4c4;mainText=,;recursiveResize=0;fontSize=11;" vertex="1" parent="d6CrOSBBniJGcMnvJROH-1">
          <mxGeometry x="550" y="190" width="400" height="380" as="geometry" />
        </mxCell>
        <mxCell id="YkJKgOc1pNPgFM848V_G-1" value="Page 1" style="strokeWidth=1;shadow=0;dashed=0;align=center;html=1;shape=mxgraph.mockup.containers.anchor;fontSize=17;fontColor=#666666;align=left;" vertex="1" parent="YkJKgOc1pNPgFM848V_G-0">
          <mxGeometry x="60" y="12" width="110" height="26" as="geometry" />
        </mxCell>
        <mxCell id="YkJKgOc1pNPgFM848V_G-2" value="" style="strokeWidth=1;shadow=0;dashed=0;align=center;html=1;shape=mxgraph.mockup.containers.anchor;rSize=0;fontSize=17;fontColor=#666666;align=left;" vertex="1" parent="YkJKgOc1pNPgFM848V_G-0">
          <mxGeometry x="130" y="60" width="250" height="26" as="geometry" />
        </mxCell>
        <mxCell id="YkJKgOc1pNPgFM848V_G-3" value="Find User" style="text;html=1;strokeColor=none;fillColor=none;align=left;verticalAlign=middle;whiteSpace=wrap;rounded=0;fontSize=15;fontStyle=1" vertex="1" parent="YkJKgOc1pNPgFM848V_G-0">
          <mxGeometry x="20" y="120" width="150" height="20" as="geometry" />
        </mxCell>
        <mxCell id="YkJKgOc1pNPgFM848V_G-4" value="name" style="rounded=0;whiteSpace=wrap;html=1;strokeWidth=1;fontSize=15;align=left;fontStyle=2" vertex="1" parent="YkJKgOc1pNPgFM848V_G-0">
          <mxGeometry x="20" y="150" width="150" height="20" as="geometry" />
        </mxCell>
        <mxCell id="YkJKgOc1pNPgFM848V_G-5" value="Find" style="rounded=1;whiteSpace=wrap;html=1;strokeWidth=1;fontSize=15;align=center;" vertex="1" parent="YkJKgOc1pNPgFM848V_G-0">
          <mxGeometry x="20" y="180" width="90" height="30" as="geometry" />
        </mxCell>
        <mxCell id="YkJKgOc1pNPgFM848V_G-6" value="User Details" style="text;html=1;strokeColor=none;fillColor=none;align=left;verticalAlign=middle;whiteSpace=wrap;rounded=0;fontSize=15;fontStyle=1" vertex="1" parent="YkJKgOc1pNPgFM848V_G-0">
          <mxGeometry x="20" y="230" width="150" height="20" as="geometry" />
        </mxCell>
        <mxCell id="YkJKgOc1pNPgFM848V_G-7" value="&lt;span style=&quot;font-weight: normal&quot;&gt;Name: &#39;Sarah&#39;&lt;br&gt;Age: 20&lt;br&gt;&lt;/span&gt;" style="text;html=1;strokeColor=none;fillColor=none;align=left;verticalAlign=middle;whiteSpace=wrap;rounded=0;fontSize=15;fontStyle=1" vertex="1" parent="YkJKgOc1pNPgFM848V_G-0">
          <mxGeometry x="20" y="260" width="150" height="20" as="geometry" />
        </mxCell>
      </root>
    </mxGraphModel>
  </diagram>
</mxfile>
